{
  "accessors": [
    {
      "bufferView": 2,
      "componentType": 5126,
      "count": 1021,
      "max": [
        1.0,
        1.0000004768371582,
        1.0037426948547363
      ],
      "min": [
        -1.0,
        -1.0000004768371582,
        -1.0000042915344238
      ],
      "type": "VEC3"
    },
    {
      "bufferView": 2,
      "byteOffset": 12252,
      "componentType": 5126,
      "count": 1021,
      "type": "VEC3"
    },
    {
      "bufferView": 1,
      "componentType": 5126,
      "count": 1021,
      "type": "VEC2"
    },
    {
      "bufferView": 0,
      "componentType": 5125,
      "count": 4164,
      "type": "SCALAR"
    },
    {
      "bufferView": 2,
      "byteOffset": 24504,
      "componentType": 5126,
      "count": 34,
      "max": [
        1.0,
        1.1352882385253906,
        1.0
      ],
      "min": [
        -1.0,
        -1.0,
        -1.0
      ],
      "type": "VEC3"
    },
    {
      "bufferView": 2,
      "byteOffset": 24912,
      "componentType": 5126,
      "count": 34,
      "type": "VEC3"
    },
    {
      "bufferView": 1,
      "byteOffset": 8168,
      "componentType": 5126,
      "count": 34,
      "type": "VEC2"
    },
    {
      "bufferView": 0,
      "byteOffset": 16656,
      "componentType": 5125,
      "count": 60,
      "type": "SCALAR"
    },
    {
      "bufferView": 2,
      "byteOffset": 25320,
      "componentType": 5126,
      "count": 34,
      "max": [
        1.0,
        1.1352882385253906,
        1.0
      ],
      "min": [
        -1.0,
        -1.0,
        -1.0
      ],
      "type": "VEC3"
    },
    {
      "bufferView": 2,
      "byteOffset": 25728,
      "componentType": 5126,
      "count": 34,
      "type": "VEC3"
    },
    {
      "bufferView": 1,
      "byteOffset": 8440,
      "componentType": 5126,
      "count": 34,
      "type": "VEC2"
    },
    {
      "bufferView": 0,
      "byteOffset": 16896,
      "componentType": 5125,
      "count": 60,
      "type": "SCALAR"
    },
    {
      "bufferView": 2,
      "byteOffset": 26136,
      "componentType": 5126,
      "count": 34,
      "max": [
        1.0,
        1.1352882385253906,
        1.0
      ],
      "min": [
        -1.0,
        -1.0,
        -1.0
      ],
      "type": "VEC3"
    },
    {
      "bufferView": 2,
      "byteOffset": 26544,
      "componentType": 5126,
      "count": 34,
      "type": "VEC3"
    },
    {
      "bufferView": 1,
      "byteOffset": 8712,
      "componentType": 5126,
      "count": 34,
      "type": "VEC2"
    },
    {
      "bufferView": 0,
      "byteOffset": 17136,
      "componentType": 5125,
      "count": 60,
      "type": "SCALAR"
    },
    {
      "bufferView": 2,
      "byteOffset": 26952,
      "componentType": 5126,
      "count": 836,
      "max": [
        0.8181818127632141,
        0.8181765675544739,
        27.772083282470703
      ],
      "min": [
        -0.8181818127632141,
        -0.8181822896003723,
        1.013143539428711
      ],
      "type": "VEC3"
    },
    {
      "bufferView": 2,
      "byteOffset": 36984,
      "componentType": 5126,
      "count": 836,
      "type": "VEC3"
    },
    {
      "bufferView": 1,
      "byteOffset": 8984,
      "componentType": 5126,
      "count": 836,
      "type": "VEC2"
    },
    {
      "bufferView": 0,
      "byteOffset": 17376,
      "componentType": 5125,
      "count": 2892,
      "type": "SCALAR"
    },
    {
      "bufferView": 2,
      "byteOffset": 47016,
      "componentType": 5126,
      "count": 192,
      "max": [
        1.0,
        1.0,
        1.0
      ],
      "min": [
        -1.0,
        -1.0,
        -1.0
      ],
      "type": "VEC3"
    },
    {
      "bufferView": 2,
      "byteOffset": 49320,
      "componentType": 5126,
      "count": 192,
      "type": "VEC3"
    },
    {
      "bufferView": 1,
      "byteOffset": 15672,
      "componentType": 5126,
      "count": 192,
      "type": "VEC2"
    },
    {
      "bufferView": 0,
      "byteOffset": 28944,
      "componentType": 5125,
      "count": 372,
      "type": "SCALAR"
    },
    {
      "bufferView": 2,
      "byteOffset": 51624,
      "componentType": 5126,
      "count": 192,
      "max": [
        1.0,
        1.0,
        1.0
      ],
      "min": [
        -1.0,
        -1.0,
        -1.0
      ],
      "type": "VEC3"
    },
    {
      "bufferView": 2,
      "byteOffset": 53928,
      "componentType": 5126,
      "count": 192,
      "type": "VEC3"
    },
    {
      "bufferView": 1,
      "byteOffset": 17208,
      "componentType": 5126,
      "count": 192,
      "type": "VEC2"
    },
    {
      "bufferView": 0,
      "byteOffset": 30432,
      "componentType": 5125,
      "count": 372,
      "type": "SCALAR"
    },
    {
      "bufferView": 2,
      "byteOffset": 56232,
      "componentType": 5126,
      "count": 192,
      "max": [
        1.0,
        1.0,
        1.0
      ],
      "min": [
        -1.0,
        -1.0,
        -1.0
      ],
      "type": "VEC3"
    },
    {
      "bufferView": 2,
      "byteOffset": 58536,
      "componentType": 5126,
      "count": 192,
      "type": "VEC3"
    },
    {
      "bufferView": 1,
      "byteOffset": 18744,
      "componentType": 5126,
      "count": 192,
      "type": "VEC2"
    },
    {
      "bufferView": 0,
      "byteOffset": 31920,
      "componentType": 5125,
      "count": 372,
      "type": "SCALAR"
    }
  ],
  "asset": {
    "generator": "fab-model-conversion",
    "version": "2.0"
  },
  "bufferViews": [
    {
      "buffer": 0,
      "byteLength": 33408,
      "target": 34963
    },
    {
      "buffer": 0,
      "byteLength": 20280,
      "byteOffset": 33408,
      "byteStride": 8,
      "target": 34962
    },
    {
      "buffer": 0,
      "byteLength": 60840,
      "byteOffset": 53688,
      "byteStride": 12,
      "target": 34962
    }
  ],
  "buffers": [
    {
      "byteLength": 114528,
      "uri": "scene.bin"
    }
  ],
  "materials": [
    {
      "doubleSided": true,
      "name": "white",
      "pbrMetallicRoughness": {
        "baseColorFactor": [
          0.8,
          0.8,
          0.8,
          1.0
        ],
        "metallicFactor": 0.0,
        "roughnessFactor": 0.8211145618000169
      }
    },
    {
      "doubleSided": true,
      "name": "Blue",
      "pbrMetallicRoughness": {
        "baseColorFactor": [
          0.0,
          0.322065,
          0.80115,
          1.0
        ],
        "metallicFactor": 0.0,
        "roughnessFactor": 0.9355601169329775
      }
    }
  ],
  "meshes": [
    {
      "name": "Cube_white_0",
      "primitives": [
        {
          "attributes": {
            "NORMAL": 1,
            "POSITION": 0,
            "TEXCOORD_0": 2
          },
          "indices": 3,
          "material": 0,
          "mode": 4
        }
      ]
    },
    {
      "name": "Cube.002_white_0",
      "primitives": [
        {
          "attributes": {
            "NORMAL": 5,
            "POSITION": 4,
            "TEXCOORD_0": 6
          },
          "indices": 7,
          "material": 0,
          "mode": 4
        }
      ]
    },
    {
      "name": "Cube.001_white_0",
      "primitives": [
        {
          "attributes": {
            "NORMAL": 9,
            "POSITION": 8,
            "TEXCOORD_0": 10
          },
          "indices": 11,
          "material": 0,
          "mode": 4
        }
      ]
    },
    {
      "name": "Cube.003_white_0",
      "primitives": [
        {
          "attributes": {
            "NORMAL": 13,
            "POSITION": 12,
            "TEXCOORD_0": 14
          },
          "indices": 15,
          "material": 0,
          "mode": 4
        }
      ]
    },
    {
      "name": "Cube.004_Blue_0",
      "primitives": [
        {
          "attributes": {
            "NORMAL": 17,
            "POSITION": 16,
            "TEXCOORD_0": 18
          },
          "indices": 19,
          "material": 1,
          "mode": 4
        }
      ]
    },
    {
      "name": "Cylinder_white_0",
      "primitives": [
        {
          "attributes": {
            "NORMAL": 21,
            "POSITION": 20,
            "TEXCOORD_0": 22
          },
          "indices": 23,
          "material": 0,
          "mode": 4
        }
      ]
    },
    {
      "name": "Cylinder.001_white_0",
      "primitives": [
        {
          "attributes": {
            "NORMAL": 25,
            "POSITION": 24,
            "TEXCOORD_0": 26
          },
          "indices": 27,
          "material": 0,
          "mode": 4
        }
      ]
    },
    {
      "name": "Cylinder.002_white_0",
      "primitives": [
        {
          "attributes": {
            "NORMAL": 29,
            "POSITION": 28,
            "TEXCOORD_0": 30
          },
          "indices": 31,
          "material": 0,
          "mode": 4
        }
      ]
    }
  ],
  "nodes": [
    {
      "children": [
        1
      ],
      "matrix": [
        1.0,
        0.0,
        0.0,
        0.0,
        0.0,
        2.220446049250313e-16,
        -1.0,
        0.0,
        0.0,
        1.0,
        2.220446049250313e-16,
        0.0,
        0.0,
        0.0,
        0.0,
        1.0
      ],
      "name": "Sketchfab_model"
    },
    {
      "children": [
        2
      ],
      "matrix": [
        0.009999999776482582,
        0.0,
        0.0,
        0.0,
        0.0,
        0.0,
        0.009999999776482582,
        0.0,
        0.0,
        -0.009999999776482582,
        0.0,
        0.0,
        0.0,
        0.0,
        0.0,
        1.0
      ],
      "name": "birdhouse.fbx"
    },
    {
      "children": [
        3,
        5,
        8,
        10,
        12,
        14,
        16,
        18,
        20,
        22
      ],
      "name": "RootNode"
    },
    {
      "children": [
        4
      ],
      "matrix": [
        201.97430419921875,
        0.0,
        0.0,
        0.0,
        -0.0,
        -4.795491243418921e-05,
        -294.3451538085899,
        0.0,
        0.0,
        21.484794616698935,
        -3.500317335546599e-06,
        0.0,
        -13.525419235229492,
        22.037696838378906,
        5.709626197814941,
        1.0
      ],
      "name": "Cube"
    },
    {
      "mesh": 0,
      "name": "Cube_white_0"
    },
    {
      "children": [
        6
      ],
      "matrix": [
        -58.74720462801393,
        -11.14677644365301,
        -192.92002197819704,
        0.0,
        114.39682991986598,
        160.50338991225902,
        -44.10941536623198,
        0.0,
        155.74258408364182,
        -122.09844027853569,
        -40.37132775899244,
        0.0,
        809.7713623046875,
        1465.838134765625,
        -213.9737091064453,
        1.0
      ],
      "name": "Light"
    },
    {
      "children": [
        7
      ],
      "matrix": [
        1.0,
        0.0,
        0.0,
        0.0,
        0.0,
        2.220446049250313e-16,
        1.0,
        0.0,
        0.0,
        -1.0,
        2.220446049250313e-16,
        0.0,
        0.0,
        0.0,
        0.0,
        1.0
      ],
      "name": "Object_6"
    },
    {
      "name": "Object_7"
    },
    {
      "children": [
        9
      ],
      "matrix": [
        -65.1558127516791,
        -44.52713915455176,
        -61.417049289096546,
        0.0,
        -32.401349332924404,
        89.53957282709818,
        -30.5420854760369,
        0.0,
        68.59207001076241,
        8.666908837178815e-06,
        -72.76761921184274,
        0.0,
        735.88916015625,
        495.8309326171875,
        692.5791015625,
        1.0
      ],
      "name": "Camera"
    },
    {
      "name": "Object_9"
    },
    {
      "children": [
        11
      ],
      "matrix": [
        201.97430419921875,
        0.0,
        0.0,
        0.0,
        0.0,
        71.4086877120713,
        -71.4086908334444,
        0.0,
        0.0,
        7.140869892563949,
        7.140869580426603,
        0.0,
        -13.525419235229492,
        520.45947265625,
        225.39617919921875,
        1.0
      ],
      "name": "Cube.002"
    },
    {
      "mesh": 1,
      "name": "Cube.002_white_0"
    },
    {
      "children": [
        13
      ],
      "matrix": [
        201.97430419921875,
        0.0,
        0.0,
        0.0,
        0.0,
        -71.40868969852792,
        -71.40868884698783,
        0.0,
        0.0,
        7.14086969391827,
        -7.140869779072288,
        0.0,
        -13.525419235229492,
        525.9464111328125,
        37.019168853759766,
        1.0
      ],
      "name": "Cube.001"
    },
    {
      "mesh": 2,
      "name": "Cube.001_white_0"
    },
    {
      "children": [
        15
      ],
      "matrix": [
        201.97430419921875,
        0.0,
        0.0,
        0.0,
        -0.0,
        -41.55150392380918,
        -120.67430113764976,
        0.0,
        0.0,
        9.880778696409068,
        -3.402225750665968,
        0.0,
        -13.525419235229492,
        231.37156677246094,
        -113.7525405883789,
        1.0
      ],
      "name": "Cube.003"
    },
    {
      "mesh": 3,
      "name": "Cube.003_white_0"
    },
    {
      "children": [
        17
      ],
      "matrix": [
        201.97430419921875,
        0.0,
        0.0,
        0.0,
        -0.0,
        -4.795491243418921e-05,
        -294.3451538085899,
        0.0,
        0.0,
        21.484794616698935,
        -3.500317335546599e-06,
        0.0,
        -13.525419235229492,
        22.037696838378906,
        5.709626197814941,
        1.0
      ],
      "name": "Cube.004"
    },
    {
      "mesh": 4,
      "name": "Cube.004_Blue_0"
    },
    {
      "children": [
        19
      ],
      "matrix": [
        -1.8994029994185007e-07,
        -4.345327377319332,
        -4.824282503833972e-16,
        0.0,
        -1.899403001830642e-07,
        8.68370850690115e-15,
        -4.345327377319332,
        0.0,
        42.15951156616203,
        -1.8428508572783904e-06,
        -1.8428508549380674e-06,
        0.0,
        -207.5907745361328,
        380.43524169921875,
        128.6367950439453,
        1.0
      ],
      "name": "Cylinder"
    },
    {
      "mesh": 5,
      "name": "Cylinder_white_0"
    },
    {
      "children": [
        21
      ],
      "matrix": [
        -1.8994029994185007e-07,
        -4.345327377319332,
        -4.824282503833972e-16,
        0.0,
        -1.899403001830642e-07,
        8.68370850690115e-15,
        -4.345327377319332,
        0.0,
        42.15951156616203,
        -1.8428508572783904e-06,
        -1.8428508549380674e-06,
        0.0,
        -207.5907745361328,
        104.01446533203125,
        128.6367950439453,
        1.0
      ],
      "name": "Cylinder.001"
    },
    {
      "mesh": 6,
      "name": "Cylinder.001_white_0"
    },
    {
      "children": [
        23
      ],
      "matrix": [
        -1.8994029994185007e-07,
        -4.345327377319332,
        -4.824282503833972e-16,
        0.0,
        -1.899403001830642e-07,
        8.68370850690115e-15,
        -4.345327377319332,
        0.0,
        42.15951156616203,
        -1.8428508572783904e-06,
        -1.8428508549380674e-06,
        0.0,
        -207.5907745361328,
        104.01446533203125,
        -107.20003509521484,
        1.0
      ],
      "name": "Cylinder.002"
    },
    {
      "mesh": 7,
      "name": "Cylinder.002_white_0"
    }
  ],
  "scene": 0,
  "scenes": [
    {
      "name": "Sketchfab_Scene",
      "nodes": [
        0
      ]
    }
  ]
}
