{
  "accessors": [
    {
      "bufferView": 1,
      "componentType": 5126,
      "count": 8731,
      "max": [
        84.76715087890625,
        201.33607482910156,
        107.82312774658203
      ],
      "min": [
        -170.40304565429688,
        -97.24073028564453,
        -65.04529571533203
      ],
      "type": "VEC3"
    },
    {
      "bufferView": 1,
      "byteOffset": 104772,
      "componentType": 5126,
      "count": 8731,
      "max": [
        0.9999021291732788,
        0.9993919134140015,
        0.9999548196792603
      ],
      "min": [
        -0.9999814033508301,
        -0.9993972778320313,
        -0.9998835325241089
      ],
      "type": "VEC3"
    },
    {
      "bufferView": 2,
      "componentType": 5126,
      "count": 8731,
      "max": [
        1.0,
        1.0,
        0.5568627715110779,
        0.0
      ],
      "min": [
        0.21568627655506134,
        0.08627451211214066,
        0.08627451211214066,
        0.0
      ],
      "type": "VEC4"
    },
    {
      "bufferView": 0,
      "componentType": 5125,
      "count": 51018,
      "type": "SCALAR"
    }
  ],
  "asset": {
    "extras": {
      "author": "Nerikaen (https://sketchfab.com/Nerikaen)",
      "license": "CC-BY-SA-4.0 (http://creativecommons.org/licenses/by-sa/4.0/)",
      "source": "https://sketchfab.com/3d-models/flowered-antler-deer-8017ce1cbe06458aa77a3c7b18df28c8",
      "title": "Flowered Antler Deer"
    },
    "generator": "Sketchfab-13.28.0",
    "version": "2.0"
  },
  "bufferViews": [
    {
      "buffer": 0,
      "byteLength": 204072,
      "name": "floatBufferViews",
      "target": 34963
    },
    {
      "buffer": 0,
      "byteLength": 209544,
      "byteOffset": 204072,
      "byteStride": 12,
      "name": "floatBufferViews",
      "target": 34962
    },
    {
      "buffer": 0,
      "byteLength": 139696,
      "byteOffset": 413616,
      "byteStride": 16,
      "name": "floatBufferViews",
      "target": 34962
    }
  ],
  "buffers": [
    {
      "byteLength": 553312,
      "uri": "scene.bin"
    }
  ],
  "materials": [
    {
      "doubleSided": true,
      "name": "material_0",
      "pbrMetallicRoughness": {
        "metallicFactor": 0.0,
        "roughnessFactor": 0.608001852958028
      }
    }
  ],
  "meshes": [
    {
      "name": "Object_0",
      "primitives": [
        {
          "attributes": {
            "COLOR_0": 2,
            "NORMAL": 1,
            "POSITION": 0
          },
          "indices": 3,
          "material": 0,
          "mode": 4
        }
      ]
    }
  ],
  "nodes": [
    {
      "children": [
        1
      ],
      "matrix": [
        1.0,
        0.0,
        0.0,
        0.0,
        0.0,
        2.220446049250313e-16,
        -1.0,
        0.0,
        0.0,
        1.0,
        2.220446049250313e-16,
        0.0,
        0.0,
        0.0,
        0.0,
        1.0
      ],
      "name": "Sketchfab_model"
    },
    {
      "children": [
        2
      ],
      "name": "root"
    },
    {
      "children": [
        3
      ],
      "matrix": [
        1.0,
        0.0,
        0.0,
        0.0,
        0.0,
        2.220446049250313e-16,
        1.0,
        0.0,
        0.0,
        -1.0,
        2.220446049250313e-16,
        0.0,
        0.0,
        0.0,
        0.0,
        1.0
      ],
      "name": "GLTF_SceneRootNode"
    },
    {
      "children": [
        4
      ],
      "matrix": [
        1.0,
        0.0,
        0.0,
        0.0,
        0.0,
        1.0,
        0.0,
        0.0,
        0.0,
        0.0,
        1.0,
        0.0,
        0.0,
        -3.961822509765625,
        0.0,
        1.0
      ],
      "name": "Mesh_0"
    },
    {
      "mesh": 0,
      "name": "Object_4"
    }
  ],
  "scene": 0,
  "scenes": [
    {
      "name": "Sketchfab_Scene",
      "nodes": [
        0
      ]
    }
  ]
}
