{
  "extensionsUsed": [
    "KHR_materials_transmission",
    "KHR_materials_clearcoat",
    "KHR_materials_ior",
    "KHR_materials_specular",
    "KHR_materials_emissive_strength",
    "KHR_texture_transform"
  ],
  "accessors": [
    {
      "bufferView": 0,
      "componentType": 5126,
      "count": 85,
      "type": "VEC3",
      "max": [
        0.4214732,
        0.3456546,
        0.43297598
      ],
      "min": [
        -0.4214732,
        -0.3456546,
        -0.43297598
      ]
    },
    {
      "bufferView": 1,
      "componentType": 5125,
      "count": 468,
      "type": "SCALAR",
      "max": [
        84.0
      ],
      "min": [
        0.0
      ]
    },
    {
      "bufferView": 2,
      "componentType": 5126,
      "count": 85,
      "type": "VEC3",
      "max": [
        0.97739846,
        0.9999993,
        0.9724598
      ],
      "min": [
        -0.98624754,
        0.16065128,
        -0.97973305
      ]
    },
    {
      "bufferView": 3,
      "componentType": 5126,
      "count": 85,
      "type": "VEC2",
      "max": [
        0.40445095,
        0.8762693
      ],
      "min": [
        0.3248629,
        0.8762693
      ]
    }
  ],
  "asset": {
    "version": "2.0"
  },
  "buffers": [
    {
      "uri": "data:application/octet-stream;base64,",
      "byteLength": 1020
    },
    {
      "uri": "data:application/octet-stream;base64,",
      "byteLength": 1872
    },
    {
      "uri": "data:application/octet-stream;base64,",
      "byteLength": 1020
    },
    {
      "uri": "data:application/octet-stream;base64,",
      "byteLength": 680
    },
    {
      "uri": "data:application/octet-stream;base64,",
      "byteLength": 158664
    },
    {
      "uri": "data:application/octet-stream;base64,",
      "byteLength": 147300
    }
  ],
  "bufferViews": [
    {
      "buffer": 0,
      "byteLength": 1020,
      "target": 34962
    },
    {
      "buffer": 1,
      "byteLength": 1872,
      "target": 34963
    },
    {
      "buffer": 2,
      "byteLength": 1020,
      "target": 34962
    },
    {
      "buffer": 3,
      "byteLength": 680,
      "target": 34962
    },
    {
      "buffer": 4,
      "byteLength": 158664
    },
    {
      "buffer": 5,
      "byteLength": 147300
    }
  ],
  "images": [
    {
      "mimeType": "image/png",
      "bufferView": 4
    },
    {
      "mimeType": "image/png",
      "bufferView": 5
    }
  ],
  "materials": [
    {
      "name": "Material.005",
      "extensions": {
        "KHR_materials_emissive_strength": {
          "emissiveStrength": 1.0
        },
        "KHR_materials_transmission": {},
        "KHR_materials_clearcoat": {},
        "KHR_materials_ior": {
          "ior": 1.52
        },
        "KHR_materials_specular": {
          "specularFactor": 1.0,
          "specularColorFactor": [
            1.0,
            1.0,
            1.0
          ]
        }
      },
      "pbrMetallicRoughness": {
        "baseColorTexture": {
          "index": 0,
          "extensions": {
            "KHR_texture_transform": {
              "offset": [
                0.0,
                1.0
              ],
              "scale": [
                1.0,
                -1.0
              ]
            }
          }
        },
        "metallicFactor": 0.0
      },
      "emissiveTexture": {
        "index": 1,
        "extensions": {
          "KHR_texture_transform": {
            "offset": [
              0.0,
              1.0
            ],
            "scale": [
              1.0,
              -1.0
            ]
          }
        }
      }
    }
  ],
  "meshes": [
    {
      "primitives": [
        {
          "attributes": {
            "POSITION": 0,
            "NORMAL": 2,
            "TEXCOORD_0": 3
          },
          "indices": 1,
          "material": 0
        }
      ]
    }
  ],
  "nodes": [
    {
      "mesh": 0,
      "name": "Hay_Pile_Material.005_0"
    }
  ],
  "samplers": [
    {
      "magFilter": 9729,
      "minFilter": 9729
    }
  ],
  "scene": 0,
  "scenes": [
    {
      "nodes": [
        0
      ],
      "extensions": {}
    }
  ],
  "textures": [
    {
      "sampler": 0,
      "source": 0
    },
    {
      "sampler": 0,
      "source": 1
    }
  ],
  "extensions": {}
}