{
  "accessors": [
    {
      "bufferView": 2,
      "componentType": 5126,
      "count": 31039,
      "max": [
        0.8637400269508362,
        0.8637400269508362,
        1.298949956893921
      ],
      "min": [
        -0.8637400269508362,
        -0.8637400269508362,
        -2.9216699600219727
      ],
      "type": "VEC3"
    },
    {
      "bufferView": 2,
      "byteOffset": 372468,
      "componentType": 5126,
      "count": 31039,
      "max": [
        0.9999991059303284,
        0.9999991059303284,
        0.9999993443489075
      ],
      "min": [
        -0.9999991059303284,
        -0.9999991059303284,
        -1.0
      ],
      "type": "VEC3"
    },
    {
      "bufferView": 1,
      "componentType": 5126,
      "count": 31039,
      "max": [
        1.0,
        1.0
      ],
      "min": [
        0.0,
        0.0
      ],
      "type": "VEC2"
    },
    {
      "bufferView": 0,
      "componentType": 5125,
      "count": 175104,
      "type": "SCALAR"
    },
    {
      "bufferView": 2,
      "byteOffset": 744936,
      "componentType": 5126,
      "count": 8706,
      "max": [
        1.3553800582885742,
        1.3553800582885742,
        1.0
      ],
      "min": [
        -1.3553800582885742,
        -1.3553800582885742,
        -2.3175299167633057
      ],
      "type": "VEC3"
    },
    {
      "bufferView": 2,
      "byteOffset": 849408,
      "componentType": 5126,
      "count": 8706,
      "max": [
        0.9999136924743652,
        0.9999122619628906,
        0.9999988675117493
      ],
      "min": [
        -0.9998937249183655,
        -0.9998937249183655,
        -1.0
      ],
      "type": "VEC3"
    },
    {
      "bufferView": 0,
      "byteOffset": 700416,
      "componentType": 5125,
      "count": 52224,
      "type": "SCALAR"
    },
    {
      "bufferView": 2,
      "byteOffset": 953880,
      "componentType": 5126,
      "count": 86,
      "max": [
        0.07999999821186066,
        0.07999999821186066,
        1.0000100135803223
      ],
      "min": [
        -0.07999999821186066,
        -0.07999999821186066,
        -1.0
      ],
      "type": "VEC3"
    },
    {
      "bufferView": 2,
      "byteOffset": 954912,
      "componentType": 5126,
      "count": 86,
      "max": [
        1.0,
        1.0,
        1.0
      ],
      "min": [
        -1.0,
        -1.0,
        -0.7537803053855896
      ],
      "type": "VEC3"
    },
    {
      "bufferView": 0,
      "byteOffset": 909312,
      "componentType": 5125,
      "count": 402,
      "type": "SCALAR"
    },
    {
      "bufferView": 2,
      "byteOffset": 955944,
      "componentType": 5126,
      "count": 86,
      "max": [
        0.07999999821186066,
        0.07999999821186066,
        1.0000100135803223
      ],
      "min": [
        -0.07999999821186066,
        -0.07999999821186066,
        -1.0
      ],
      "type": "VEC3"
    },
    {
      "bufferView": 2,
      "byteOffset": 956976,
      "componentType": 5126,
      "count": 86,
      "max": [
        1.0,
        1.0,
        1.0
      ],
      "min": [
        -1.0,
        -1.0,
        -0.7537803053855896
      ],
      "type": "VEC3"
    },
    {
      "bufferView": 0,
      "byteOffset": 910920,
      "componentType": 5125,
      "count": 402,
      "type": "SCALAR"
    },
    {
      "bufferView": 2,
      "byteOffset": 958008,
      "componentType": 5126,
      "count": 60,
      "max": [
        1.0,
        1.0,
        0.0
      ],
      "min": [
        -1.0,
        -1.0,
        0.0
      ],
      "type": "VEC3"
    },
    {
      "bufferView": 2,
      "byteOffset": 958728,
      "componentType": 5126,
      "count": 60,
      "max": [
        -0.0,
        0.0,
        1.0
      ],
      "min": [
        -0.0,
        0.0,
        1.0
      ],
      "type": "VEC3"
    },
    {
      "bufferView": 3,
      "componentType": 5126,
      "count": 60,
      "max": [
        0.9663269519805908,
        0.259910523891449,
        0.0,
        1.0
      ],
      "min": [
        0.9656327366828918,
        0.2573176324367523,
        0.0,
        1.0
      ],
      "type": "VEC4"
    },
    {
      "bufferView": 1,
      "byteOffset": 248312,
      "componentType": 5126,
      "count": 60,
      "max": [
        0.9998999834060669,
        0.9998900294303894
      ],
      "min": [
        9.999999747378752e-05,
        9.999999747378752e-05
      ],
      "type": "VEC2"
    },
    {
      "bufferView": 0,
      "byteOffset": 912528,
      "componentType": 5125,
      "count": 174,
      "type": "SCALAR"
    },
    {
      "bufferView": 2,
      "byteOffset": 959448,
      "componentType": 5126,
      "count": 130,
      "max": [
        0.8500000238418579,
        0.8500000238418579,
        0.05251999944448471
      ],
      "min": [
        -0.8547199964523315,
        -0.0,
        -0.05251999944448471
      ],
      "type": "VEC3"
    },
    {
      "bufferView": 2,
      "byteOffset": 961008,
      "componentType": 5126,
      "count": 130,
      "max": [
        0.7145816683769226,
        0.7185184955596924,
        0.7066089510917664
      ],
      "min": [
        -0.7217496037483215,
        -0.5893473029136658,
        -0.7066089510917664
      ],
      "type": "VEC3"
    },
    {
      "bufferView": 3,
      "byteOffset": 960,
      "componentType": 5126,
      "count": 130,
      "max": [
        0.6917984485626221,
        0.6955078840255737,
        0.8184077143669128,
        1.0
      ],
      "min": [
        -0.6917984485626221,
        -0.9998716711997986,
        -0.8184077143669128,
        1.0
      ],
      "type": "VEC4"
    },
    {
      "bufferView": 1,
      "byteOffset": 248792,
      "componentType": 5126,
      "count": 130,
      "max": [
        1.0,
        1.0
      ],
      "min": [
        0.0,
        0.0
      ],
      "type": "VEC2"
    },
    {
      "bufferView": 0,
      "byteOffset": 913224,
      "componentType": 5125,
      "count": 360,
      "type": "SCALAR"
    }
  ],
  "asset": {
    "extras": {
      "author": "Broccoletto (https://sketchfab.com/broccoletto)",
      "license": "CC-BY-4.0 (http://creativecommons.org/licenses/by/4.0/)",
      "source": "https://sketchfab.com/3d-models/summer-drink-4336815ca8734e099399473c8669f3ba",
      "title": "Summer drink"
    },
    "generator": "Sketchfab-12.66.0",
    "version": "2.0"
  },
  "bufferViews": [
    {
      "buffer": 0,
      "byteLength": 914664,
      "name": "floatBufferViews",
      "target": 34963
    },
    {
      "buffer": 0,
      "byteLength": 249832,
      "byteOffset": 914664,
      "byteStride": 8,
      "name": "floatBufferViews",
      "target": 34962
    },
    {
      "buffer": 0,
      "byteLength": 962568,
      "byteOffset": 1164496,
      "byteStride": 12,
      "name": "floatBufferViews",
      "target": 34962
    },
    {
      "buffer": 0,
      "byteLength": 3040,
      "byteOffset": 2127064,
      "byteStride": 16,
      "name": "floatBufferViews",
      "target": 34962
    }
  ],
  "buffers": [
    {
      "byteLength": 2130104,
      "uri": "scene.bin"
    }
  ],
  "extensionsRequired": [
    "KHR_materials_pbrSpecularGlossiness"
  ],
  "extensionsUsed": [
    "KHR_materials_pbrSpecularGlossiness"
  ],
  "images": [
    {
      "uri": "textures/lime_diffuse.png"
    },
    {
      "uri": "textures/lime_specularGlossiness.png"
    },
    {
      "uri": "textures/lime_normal.png"
    },
    {
      "uri": "textures/lime_occlusion.png"
    },
    {
      "uri": "textures/foam_specularGlossiness.png"
    },
    {
      "uri": "textures/foam_normal.png"
    },
    {
      "uri": "textures/foam_occlusion.png"
    },
    {
      "uri": "textures/glass_specularGlossiness.png"
    }
  ],
  "materials": [
    {
      "doubleSided": true,
      "extensions": {
        "KHR_materials_pbrSpecularGlossiness": {
          "diffuseFactor": [
            1.0,
            1.0,
            1.0,
            1.0
          ],
          "diffuseTexture": {
            "index": 0
          },
          "glossinessFactor": 1.0,
          "specularFactor": [
            0.3,
            0.3,
            0.3
          ],
          "specularGlossinessTexture": {
            "index": 1
          }
        }
      },
      "name": "lime",
      "normalTexture": {
        "index": 2
      },
      "occlusionTexture": {
        "index": 3,
        "strength": 0.3
      }
    },
    {
      "alphaMode": "BLEND",
      "doubleSided": true,
      "extensions": {
        "KHR_materials_pbrSpecularGlossiness": {
          "diffuseFactor": [
            0.0,
            0.0,
            0.0,
            0.5
          ],
          "glossinessFactor": 1.0,
          "specularFactor": [
            1.0,
            1.0,
            1.0
          ],
          "specularGlossinessTexture": {
            "index": 4
          }
        }
      },
      "name": "foam",
      "normalTexture": {
        "index": 5,
        "scale": 0.6541539634
      },
      "occlusionTexture": {
        "index": 6
      }
    },
    {
      "extensions": {
        "KHR_materials_pbrSpecularGlossiness": {
          "diffuseFactor": [
            1.0,
            0.0843762115,
            0.0843762115,
            1.0
          ],
          "glossinessFactor": 0.8,
          "specularFactor": [
            0.05,
            0.05,
            0.05
          ]
        }
      },
      "name": "straw02"
    },
    {
      "extensions": {
        "KHR_materials_pbrSpecularGlossiness": {
          "diffuseFactor": [
            0.1274376804,
            0.7230551289,
            0.0085681256,
            1.0
          ],
          "glossinessFactor": 0.8,
          "specularFactor": [
            0.1,
            0.1,
            0.1
          ]
        }
      },
      "name": "straw01"
    },
    {
      "extensions": {
        "KHR_materials_pbrSpecularGlossiness": {
          "diffuseFactor": [
            0.0742135684,
            0.4019777798,
            0.4072402119,
            1.0
          ],
          "glossinessFactor": 0.8,
          "specularFactor": [
            0.1,
            0.1,
            0.1
          ]
        }
      },
      "name": "cocktail"
    },
    {
      "alphaMode": "BLEND",
      "extensions": {
        "KHR_materials_pbrSpecularGlossiness": {
          "diffuseFactor": [
            0.0,
            0.0,
            0.0,
            0.1
          ],
          "glossinessFactor": 1.0,
          "specularFactor": [
            1.0,
            1.0,
            1.0
          ],
          "specularGlossinessTexture": {
            "index": 7
          }
        }
      },
      "name": "glass"
    }
  ],
  "meshes": [
    {
      "name": "glass_0",
      "primitives": [
        {
          "attributes": {
            "NORMAL": 1,
            "POSITION": 0,
            "TEXCOORD_0": 2
          },
          "indices": 3,
          "material": 5,
          "mode": 4
        }
      ]
    },
    {
      "name": "cocktail_0",
      "primitives": [
        {
          "attributes": {
            "NORMAL": 5,
            "POSITION": 4
          },
          "indices": 6,
          "material": 4,
          "mode": 4
        }
      ]
    },
    {
      "name": "Cylinder_0",
      "primitives": [
        {
          "attributes": {
            "NORMAL": 8,
            "POSITION": 7
          },
          "indices": 9,
          "material": 3,
          "mode": 4
        }
      ]
    },
    {
      "name": "Cylinder.001_0",
      "primitives": [
        {
          "attributes": {
            "NORMAL": 11,
            "POSITION": 10
          },
          "indices": 12,
          "material": 2,
          "mode": 4
        }
      ]
    },
    {
      "name": "Circle_0",
      "primitives": [
        {
          "attributes": {
            "NORMAL": 14,
            "POSITION": 13,
            "TANGENT": 15,
            "TEXCOORD_0": 16
          },
          "indices": 17,
          "material": 1,
          "mode": 4
        }
      ]
    },
    {
      "name": "Cylinder.002_0",
      "primitives": [
        {
          "attributes": {
            "NORMAL": 19,
            "POSITION": 18,
            "TANGENT": 20,
            "TEXCOORD_0": 21
          },
          "indices": 22,
          "material": 0,
          "mode": 4
        }
      ]
    }
  ],
  "nodes": [
    {
      "children": [
        1
      ],
      "matrix": [
        0.0,
        -1.1555770232828063e-17,
        0.05204256251454353,
        0.0,
        0.05204256251454353,
        0.0,
        0.0,
        0.0,
        0.0,
        0.05204256251454353,
        1.1555770232828063e-17,
        0.0,
        0.0676606297492981,
        1.5383206891824214e-17,
        -0.06927980482578278,
        1.0
      ],
      "name": "Sketchfab_model"
    },
    {
      "children": [
        2,
        4,
        6,
        8,
        10,
        12,
        14
      ],
      "name": "Root"
    },
    {
      "children": [
        3
      ],
      "matrix": [
        -0.29086000000000006,
        0.9551700000000001,
        -0.05519000000000001,
        0.0,
        -0.7711,
        -0.19988000000000003,
        0.6045200000000001,
        0.0,
        0.5663900000000001,
        0.21839000000000003,
        0.7946700000000001,
        0.0,
        4.076250000000001,
        -31.20407,
        5.903860000000001,
        1.0
      ],
      "name": "Lamp"
    },
    {
      "name": "Lamp"
    },
    {
      "children": [
        5
      ],
      "matrix": [
        1.5389899999999999,
        0.0,
        0.0,
        0.0,
        0.0,
        1.5389899999999999,
        0.0,
        0.0,
        0.0,
        0.0,
        1.5389899999999999,
        0.0,
        0.0,
        0.0008100000000000003,
        4.504929999999999,
        1.0
      ],
      "name": "glass"
    },
    {
      "mesh": 0,
      "name": "glass_0"
    },
    {
      "children": [
        7
      ],
      "matrix": [
        0.8786900000000002,
        0.0,
        0.0,
        0.0,
        0.0,
        0.8786900000000002,
        0.0,
        0.0,
        0.0,
        0.0,
        0.8786900000000002,
        0.0,
        0.0,
        0.0008100000000000003,
        5.28519,
        1.0
      ],
      "name": "cocktail"
    },
    {
      "mesh": 1,
      "name": "cocktail_0"
    },
    {
      "children": [
        9
      ],
      "matrix": [
        0.93749,
        0.0,
        -0.3480100000000001,
        0.0,
        0.0,
        1.0,
        0.0,
        0.0,
        0.8532000000000001,
        0.0,
        2.2984,
        0.0,
        0.53803,
        0.0,
        5.771250000000001,
        1.0
      ],
      "name": "Cylinder"
    },
    {
      "mesh": 2,
      "name": "Cylinder_0"
    },
    {
      "children": [
        11
      ],
      "matrix": [
        0.8966400000000002,
        0.27374,
        -0.3480100000000001,
        0.0,
        -0.29199,
        0.95642,
        0.0,
        0.0,
        0.8160200000000001,
        0.24913000000000002,
        2.2984,
        0.0,
        0.40662000000000004,
        0.3818500000000001,
        5.771250000000001,
        1.0
      ],
      "name": "Cylinder.001"
    },
    {
      "mesh": 3,
      "name": "Cylinder.001_0"
    },
    {
      "children": [
        13
      ],
      "matrix": [
        0.8838600000000001,
        0.0,
        0.0,
        0.0,
        0.0,
        0.8838600000000001,
        0.0,
        0.0,
        0.0,
        0.0,
        0.8838600000000001,
        0.0,
        0.0,
        0.0,
        6.17141,
        1.0
      ],
      "name": "Circle"
    },
    {
      "mesh": 4,
      "name": "Circle_0"
    },
    {
      "children": [
        15
      ],
      "matrix": [
        -0.50849,
        -0.76156,
        -0.8498400000000002,
        0.0,
        -0.50266,
        -0.6857900000000002,
        0.91531,
        0.0,
        -1.02447,
        0.7144900000000001,
        -0.027290000000000005,
        0.0,
        0.55655,
        0.94025,
        6.251320000000001,
        1.0
      ],
      "name": "Cylinder.002"
    },
    {
      "mesh": 5,
      "name": "Cylinder.002_0"
    }
  ],
  "samplers": [
    {
      "magFilter": 9729,
      "minFilter": 9987,
      "wrapS": 10497,
      "wrapT": 10497
    }
  ],
  "scene": 0,
  "scenes": [
    {
      "name": "Sketchfab_Scene",
      "nodes": [
        0
      ]
    }
  ],
  "textures": [
    {
      "sampler": 0,
      "source": 0
    },
    {
      "sampler": 0,
      "source": 1
    },
    {
      "sampler": 0,
      "source": 2
    },
    {
      "sampler": 0,
      "source": 3
    },
    {
      "sampler": 0,
      "source": 4
    },
    {
      "sampler": 0,
      "source": 5
    },
    {
      "sampler": 0,
      "source": 6
    },
    {
      "sampler": 0,
      "source": 7
    }
  ]
}
