{
  "accessors": [
    {
      "bufferView": 2,
      "componentType": 5126,
      "count": 128,
      "max": [
        1.0,
        0.040165193378925323,
        1.0
      ],
      "min": [
        -1.0,
        -0.1288132667541504,
        -1.0
      ],
      "type": "VEC3"
    },
    {
      "bufferView": 2,
      "byteOffset": 1536,
      "componentType": 5126,
      "count": 128,
      "max": [
        0.9951865673065186,
        0.0,
        0.9951865673065186
      ],
      "min": [
        -0.9951865673065186,
        0.0,
        -0.9951865673065186
      ],
      "type": "VEC3"
    },
    {
      "bufferView": 1,
      "componentType": 5126,
      "count": 128,
      "max": [
        0.0,
        1.0
      ],
      "min": [
        0.0,
        1.0
      ],
      "type": "VEC2"
    },
    {
      "bufferView": 0,
      "componentType": 5125,
      "count": 192,
      "type": "SCALAR"
    },
    {
      "bufferView": 2,
      "byteOffset": 3072,
      "componentType": 5126,
      "count": 768,
      "max": [
        0.5147706866264343,
        0.7452058792114258,
        0.5147706866264343
      ],
      "min": [
        -0.5147706866264343,
        -5.4195523262023926e-05,
        -0.5147706866264343
      ],
      "type": "VEC3"
    },
    {
      "bufferView": 2,
      "byteOffset": 12288,
      "componentType": 5126,
      "count": 768,
      "max": [
        0.9913956522941589,
        1.0,
        0.9938982129096985
      ],
      "min": [
        -0.993898332118988,
        -1.0,
        -0.9913956522941589
      ],
      "type": "VEC3"
    },
    {
      "bufferView": 1,
      "byteOffset": 1024,
      "componentType": 5126,
      "count": 768,
      "max": [
        0.875,
        1.0
      ],
      "min": [
        0.125,
        -0.00022029876708984375
      ],
      "type": "VEC2"
    },
    {
      "bufferView": 0,
      "byteOffset": 768,
      "componentType": 5125,
      "count": 1140,
      "type": "SCALAR"
    },
    {
      "bufferView": 2,
      "byteOffset": 21504,
      "componentType": 5126,
      "count": 10576,
      "max": [
        0.7692283987998962,
        0.012202474288642406,
        0.2502439320087433
      ],
      "min": [
        -0.8764689564704895,
        -1.096961498260498,
        -0.2479167878627777
      ],
      "type": "VEC3"
    },
    {
      "bufferView": 2,
      "byteOffset": 148416,
      "componentType": 5126,
      "count": 10576,
      "max": [
        0.9274198412895203,
        0.8050068020820618,
        0.9839231371879578
      ],
      "min": [
        -0.9308752417564392,
        -0.8023908138275146,
        -0.9837096333503723
      ],
      "type": "VEC3"
    },
    {
      "bufferView": 0,
      "byteOffset": 5328,
      "componentType": 5125,
      "count": 19200,
      "type": "SCALAR"
    },
    {
      "bufferView": 2,
      "byteOffset": 275328,
      "componentType": 5126,
      "count": 1070,
      "max": [
        1.1954827308654785,
        1.2478621006011963,
        1.1954823732376099
      ],
      "min": [
        -1.1954818964004517,
        -1.6810035705566406,
        -1.1954829692840576
      ],
      "type": "VEC3"
    },
    {
      "bufferView": 2,
      "byteOffset": 288168,
      "componentType": 5126,
      "count": 1070,
      "max": [
        0.9903481602668762,
        0.9814532399177551,
        0.9937781691551208
      ],
      "min": [
        -0.9903481602668762,
        -0.5410873293876648,
        -0.9864424467086792
      ],
      "type": "VEC3"
    },
    {
      "bufferView": 1,
      "byteOffset": 7168,
      "componentType": 5126,
      "count": 1070,
      "max": [
        1.0,
        1.0625
      ],
      "min": [
        0.0,
        0.06249988079071045
      ],
      "type": "VEC2"
    },
    {
      "bufferView": 0,
      "byteOffset": 82128,
      "componentType": 5125,
      "count": 1578,
      "type": "SCALAR"
    },
    {
      "bufferView": 2,
      "byteOffset": 301008,
      "componentType": 5126,
      "count": 1104,
      "max": [
        1.1733394861221313,
        1.268019676208496,
        1.1733391284942627
      ],
      "min": [
        -1.1733391284942627,
        -1.683796763420105,
        -1.173339605331421
      ],
      "type": "VEC3"
    },
    {
      "bufferView": 2,
      "byteOffset": 314256,
      "componentType": 5126,
      "count": 1104,
      "max": [
        0.9744870066642761,
        0.9965265393257141,
        0.9781053066253662
      ],
      "min": [
        -0.9744870066642761,
        -0.5790178179740906,
        -0.9687992930412292
      ],
      "type": "VEC3"
    },
    {
      "bufferView": 1,
      "byteOffset": 15728,
      "componentType": 5126,
      "count": 1104,
      "max": [
        1.0007598400115967,
        0.9375001192092896
      ],
      "min": [
        -0.0007599360542371869,
        0.06249988079071045
      ],
      "type": "VEC2"
    },
    {
      "bufferView": 0,
      "byteOffset": 88440,
      "componentType": 5125,
      "count": 1584,
      "type": "SCALAR"
    },
    {
      "bufferView": 2,
      "byteOffset": 327504,
      "componentType": 5126,
      "count": 960,
      "max": [
        1.1954827308654785,
        1.1810427904129028,
        1.1954823732376099
      ],
      "min": [
        -1.1954818964004517,
        -1.5624446868896484,
        -1.1954829692840576
      ],
      "type": "VEC3"
    },
    {
      "bufferView": 2,
      "byteOffset": 339024,
      "componentType": 5126,
      "count": 960,
      "max": [
        0.9888781905174255,
        0.8749916553497314,
        0.9926374554634094
      ],
      "min": [
        -0.9888781905174255,
        -0.6078901886940002,
        -0.9871708154678345
      ],
      "type": "VEC3"
    },
    {
      "bufferView": 1,
      "byteOffset": 24560,
      "componentType": 5126,
      "count": 960,
      "max": [
        1.000762939453125,
        0.9030550122261047
      ],
      "min": [
        -0.0007629953324794769,
        0.12483680248260498
      ],
      "type": "VEC2"
    },
    {
      "bufferView": 0,
      "byteOffset": 94776,
      "componentType": 5125,
      "count": 1440,
      "type": "SCALAR"
    }
  ],
  "asset": {
    "extras": {
      "author": "hercules2209 (https://sketchfab.com/hercules2209)",
      "license": "CC-BY-4.0 (http://creativecommons.org/licenses/by/4.0/)",
      "source": "https://sketchfab.com/3d-models/hot-air-baloon-a4e998f37f4947f4b217e630a351ee9d",
      "title": "Hot Air Baloon"
    },
    "generator": "Sketchfab-16.16.0",
    "version": "2.0"
  },
  "bufferViews": [
    {
      "buffer": 0,
      "byteLength": 100536,
      "name": "floatBufferViews",
      "target": 34963
    },
    {
      "buffer": 0,
      "byteLength": 32240,
      "byteOffset": 100536,
      "byteStride": 8,
      "name": "floatBufferViews",
      "target": 34962
    },
    {
      "buffer": 0,
      "byteLength": 350544,
      "byteOffset": 132776,
      "byteStride": 12,
      "name": "floatBufferViews",
      "target": 34962
    }
  ],
  "buffers": [
    {
      "byteLength": 483320,
      "uri": "scene.bin"
    }
  ],
  "materials": [
    {
      "doubleSided": true,
      "name": "Material.001",
      "pbrMetallicRoughness": {
        "baseColorFactor": [
          0.258183,
          0.111933,
          0.0284264,
          1.0
        ],
        "metallicFactor": 0.0
      }
    },
    {
      "doubleSided": true,
      "name": "Material.002",
      "pbrMetallicRoughness": {
        "baseColorFactor": [
          0.800189,
          0.341645,
          0.0264238,
          1.0
        ],
        "metallicFactor": 0.0,
        "roughnessFactor": 0.5
      }
    },
    {
      "doubleSided": true,
      "name": "Material.003",
      "pbrMetallicRoughness": {
        "baseColorFactor": [
          0.801419,
          0.0538712,
          0.0623834,
          1.0
        ],
        "metallicFactor": 0.0,
        "roughnessFactor": 0.5
      }
    },
    {
      "doubleSided": true,
      "name": "Material.004",
      "pbrMetallicRoughness": {
        "baseColorFactor": [
          0.8,
          0.8,
          0.8,
          1.0
        ],
        "metallicFactor": 0.0,
        "roughnessFactor": 0.637762
      }
    },
    {
      "doubleSided": true,
      "name": "Material.005",
      "pbrMetallicRoughness": {
        "baseColorFactor": [
          0.117157,
          0.318168,
          0.141992,
          1.0
        ],
        "metallicFactor": 0.0,
        "roughnessFactor": 0.5
      }
    }
  ],
  "meshes": [
    {
      "name": "Object_0",
      "primitives": [
        {
          "attributes": {
            "NORMAL": 1,
            "POSITION": 0,
            "TEXCOORD_0": 2
          },
          "indices": 3,
          "material": 0,
          "mode": 4
        }
      ]
    },
    {
      "name": "Object_1",
      "primitives": [
        {
          "attributes": {
            "NORMAL": 5,
            "POSITION": 4,
            "TEXCOORD_0": 6
          },
          "indices": 7,
          "material": 0,
          "mode": 4
        }
      ]
    },
    {
      "name": "Object_2",
      "primitives": [
        {
          "attributes": {
            "NORMAL": 9,
            "POSITION": 8
          },
          "indices": 10,
          "material": 1,
          "mode": 4
        }
      ]
    },
    {
      "name": "Object_3",
      "primitives": [
        {
          "attributes": {
            "NORMAL": 12,
            "POSITION": 11,
            "TEXCOORD_0": 13
          },
          "indices": 14,
          "material": 2,
          "mode": 4
        }
      ]
    },
    {
      "name": "Object_4",
      "primitives": [
        {
          "attributes": {
            "NORMAL": 16,
            "POSITION": 15,
            "TEXCOORD_0": 17
          },
          "indices": 18,
          "material": 3,
          "mode": 4
        }
      ]
    },
    {
      "name": "Object_5",
      "primitives": [
        {
          "attributes": {
            "NORMAL": 20,
            "POSITION": 19,
            "TEXCOORD_0": 21
          },
          "indices": 22,
          "material": 4,
          "mode": 4
        }
      ]
    }
  ],
  "nodes": [
    {
      "children": [
        1
      ],
      "matrix": [
        1.0,
        0.0,
        0.0,
        0.0,
        0.0,
        2.220446049250313e-16,
        -1.0,
        0.0,
        0.0,
        1.0,
        2.220446049250313e-16,
        0.0,
        0.0,
        0.0,
        0.0,
        1.0
      ],
      "name": "Sketchfab_model"
    },
    {
      "children": [
        2
      ],
      "name": "root"
    },
    {
      "children": [
        3
      ],
      "matrix": [
        1.0,
        0.0,
        0.0,
        0.0,
        0.0,
        2.220446049250313e-16,
        1.0,
        0.0,
        0.0,
        -1.0,
        2.220446049250313e-16,
        0.0,
        0.0,
        0.0,
        0.0,
        1.0
      ],
      "name": "GLTF_SceneRootNode"
    },
    {
      "children": [
        4,
        6,
        8,
        10
      ],
      "matrix": [
        1.0,
        0.0,
        0.0,
        0.0,
        0.0,
        1.0,
        0.0,
        0.0,
        0.0,
        0.0,
        1.0,
        0.0,
        0.05810629576444626,
        0.9777005910873413,
        0.0,
        1.0
      ],
      "name": "OBJECTS_4"
    },
    {
      "children": [
        5
      ],
      "matrix": [
        0.3848119080066681,
        0.0,
        0.0,
        0.0,
        0.0,
        0.3869398832321167,
        0.0,
        0.0,
        0.0,
        0.0,
        0.3848119080066681,
        0.0,
        -0.05810629576444626,
        -0.13197720050811768,
        0.0,
        1.0
      ],
      "name": "Circle_0"
    },
    {
      "mesh": 0,
      "name": "Object_5"
    },
    {
      "children": [
        7
      ],
      "matrix": [
        0.48483937978744507,
        0.0,
        0.0,
        0.0,
        0.0,
        0.48483937978744507,
        0.0,
        0.0,
        0.0,
        0.0,
        0.48483937978744507,
        0.0,
        -0.05810629576444626,
        -0.9803861379623413,
        0.0,
        1.0
      ],
      "name": "Cube_1"
    },
    {
      "mesh": 1,
      "name": "Object_7"
    },
    {
      "children": [
        9
      ],
      "matrix": [
        0.0,
        -0.2965086102485657,
        -0.0,
        0.0,
        0.4338191747665405,
        0.0,
        0.0,
        0.0,
        0.0,
        -0.0,
        1.0,
        0.0,
        0.17431887984275818,
        -0.422979474067688,
        0.0,
        1.0
      ],
      "name": "rope_2"
    },
    {
      "mesh": 2,
      "name": "Object_9"
    },
    {
      "children": [
        11,
        12,
        13
      ],
      "matrix": [
        1.0371819734573364,
        0.0,
        0.0,
        0.0,
        0.0,
        1.0,
        0.0,
        0.0,
        0.0,
        0.0,
        1.0371819734573364,
        0.0,
        -0.05810629576444626,
        1.535342812538147,
        0.0,
        1.0
      ],
      "name": "Sphere_3"
    },
    {
      "mesh": 3,
      "name": "Object_11"
    },
    {
      "mesh": 4,
      "name": "Object_12"
    },
    {
      "mesh": 5,
      "name": "Object_13"
    }
  ],
  "scene": 0,
  "scenes": [
    {
      "name": "Sketchfab_Scene",
      "nodes": [
        0
      ]
    }
  ]
}
