{
  "extensionsUsed": [
    "KHR_materials_transmission",
    "KHR_materials_clearcoat",
    "KHR_materials_ior",
    "KHR_materials_specular",
    "KHR_materials_emissive_strength",
    "KHR_texture_transform"
  ],
  "accessors": [
    {
      "bufferView": 0,
      "componentType": 5126,
      "count": 355,
      "type": "VEC3",
      "max": [
        4.393952,
        10.297214,
        3.705208
      ],
      "min": [
        -4.364071,
        -0.79728997,
        -5.8611746
      ]
    },
    {
      "bufferView": 1,
      "componentType": 5125,
      "count": 495,
      "type": "SCALAR",
      "max": [
        354.0
      ],
      "min": [
        0.0
      ]
    },
    {
      "bufferView": 2,
      "componentType": 5126,
      "count": 355,
      "type": "VEC3",
      "max": [
        0.9968797,
        0.9998584,
        0.9466692
      ],
      "min": [
        -0.9490569,
        -0.24442182,
        -0.97255373
      ]
    },
    {
      "bufferView": 3,
      "componentType": 5126,
      "count": 355,
      "type": "VEC2",
      "max": [
        0.5924837,
        0.71745396
      ],
      "min": [
        0.003860772,
        0.013579788
      ]
    }
  ],
  "asset": {
    "version": "2.0"
  },
  "buffers": [
    {
      "uri": "data:application/octet-stream;base64,",
      "byteLength": 4260
    },
    {
      "uri": "data:application/octet-stream;base64,",
      "byteLength": 1980
    },
    {
      "uri": "data:application/octet-stream;base64,",
      "byteLength": 4260
    },
    {
      "uri": "data:application/octet-stream;base64,",
      "byteLength": 2840
    },
    {
      "uri": "data:application/octet-stream;base64,",
      "byteLength": 4328
    }
  ],
  "bufferViews": [
    {
      "buffer": 0,
      "byteLength": 4260,
      "target": 34962
    },
    {
      "buffer": 1,
      "byteLength": 1980,
      "target": 34963
    },
    {
      "buffer": 2,
      "byteLength": 4260,
      "target": 34962
    },
    {
      "buffer": 3,
      "byteLength": 2840,
      "target": 34962
    },
    {
      "buffer": 4,
      "byteLength": 4328
    }
  ],
  "images": [
    {
      "mimeType": "image/png",
      "bufferView": 4
    }
  ],
  "materials": [
    {
      "name": "Material.001",
      "extensions": {
        "KHR_materials_transmission": {},
        "KHR_materials_clearcoat": {},
        "KHR_materials_ior": {
          "ior": 1.52
        },
        "KHR_materials_specular": {
          "specularFactor": 1.0,
          "specularColorFactor": [
            1.0,
            1.0,
            1.0
          ]
        }
      },
      "pbrMetallicRoughness": {
        "baseColorTexture": {
          "index": 0,
          "extensions": {
            "KHR_texture_transform": {
              "offset": [
                0.0,
                1.0
              ],
              "scale": [
                1.0,
                -1.0
              ]
            }
          }
        },
        "metallicFactor": 0.0
      }
    }
  ],
  "meshes": [
    {
      "primitives": [
        {
          "attributes": {
            "POSITION": 0,
            "NORMAL": 2,
            "TEXCOORD_0": 3
          },
          "indices": 1,
          "material": 0
        }
      ]
    }
  ],
  "nodes": [
    {
      "mesh": 0,
      "name": "Object_6"
    }
  ],
  "samplers": [
    {
      "magFilter": 9729,
      "minFilter": 9729
    }
  ],
  "scene": 0,
  "scenes": [
    {
      "nodes": [
        0
      ],
      "extensions": {}
    }
  ],
  "textures": [
    {
      "sampler": 0,
      "source": 0
    }
  ],
  "extensions": {}
}