{
  "extensionsUsed": [
    "KHR_materials_transmission",
    "KHR_materials_clearcoat",
    "KHR_materials_ior",
    "KHR_materials_specular",
    "KHR_materials_emissive_strength",
    "KHR_texture_transform"
  ],
  "accessors": [
    {
      "bufferView": 0,
      "componentType": 5126,
      "count": 465,
      "type": "VEC3",
      "max": [
        4.029869,
        5.7474833,
        3.56148
      ],
      "min": [
        -4.029869,
        -5.7474833,
        -3.56148
      ]
    },
    {
      "bufferView": 1,
      "componentType": 5125,
      "count": 675,
      "type": "SCALAR",
      "max": [
        464.0
      ],
      "min": [
        0.0
      ]
    },
    {
      "bufferView": 2,
      "componentType": 5126,
      "count": 465,
      "type": "VEC3",
      "max": [
        0.99657077,
        0.98652434,
        0.97065234
      ],
      "min": [
        -0.9607338,
        -0.97707117,
        -0.9720232
      ]
    },
    {
      "bufferView": 3,
      "componentType": 5126,
      "count": 465,
      "type": "VEC2",
      "max": [
        0.5864143,
        0.92395484
      ],
      "min": [
        0.52746975,
        0.23547995
      ]
    }
  ],
  "asset": {
    "version": "2.0"
  },
  "buffers": [
    {
      "uri": "data:application/octet-stream;base64,",
      "byteLength": 5580
    },
    {
      "uri": "data:application/octet-stream;base64,",
      "byteLength": 2700
    },
    {
      "uri": "data:application/octet-stream;base64,",
      "byteLength": 5580
    },
    {
      "uri": "data:application/octet-stream;base64,",
      "byteLength": 3720
    },
    {
      "uri": "data:application/octet-stream;base64,",
      "byteLength": 4328
    }
  ],
  "bufferViews": [
    {
      "buffer": 0,
      "byteLength": 5580,
      "target": 34962
    },
    {
      "buffer": 1,
      "byteLength": 2700,
      "target": 34963
    },
    {
      "buffer": 2,
      "byteLength": 5580,
      "target": 34962
    },
    {
      "buffer": 3,
      "byteLength": 3720,
      "target": 34962
    },
    {
      "buffer": 4,
      "byteLength": 4328
    }
  ],
  "images": [
    {
      "mimeType": "image/png",
      "bufferView": 4
    }
  ],
  "materials": [
    {
      "name": "Material.001",
      "extensions": {
        "KHR_materials_transmission": {},
        "KHR_materials_clearcoat": {},
        "KHR_materials_ior": {
          "ior": 1.52
        },
        "KHR_materials_specular": {
          "specularFactor": 1.0,
          "specularColorFactor": [
            1.0,
            1.0,
            1.0
          ]
        }
      },
      "pbrMetallicRoughness": {
        "baseColorTexture": {
          "index": 0,
          "extensions": {
            "KHR_texture_transform": {
              "offset": [
                0.0,
                1.0
              ],
              "scale": [
                1.0,
                -1.0
              ]
            }
          }
        },
        "metallicFactor": 0.0
      }
    }
  ],
  "meshes": [
    {
      "primitives": [
        {
          "attributes": {
            "POSITION": 0,
            "NORMAL": 2,
            "TEXCOORD_0": 3
          },
          "indices": 1,
          "material": 0
        }
      ]
    }
  ],
  "nodes": [
    {
      "mesh": 0,
      "name": "Object_8"
    }
  ],
  "samplers": [
    {
      "magFilter": 9729,
      "minFilter": 9729
    }
  ],
  "scene": 0,
  "scenes": [
    {
      "nodes": [
        0
      ],
      "extensions": {}
    }
  ],
  "textures": [
    {
      "sampler": 0,
      "source": 0
    }
  ],
  "extensions": {}
}