{
  "extensionsUsed": [
    "KHR_materials_transmission",
    "KHR_materials_clearcoat",
    "KHR_materials_ior",
    "KHR_materials_specular",
    "KHR_materials_emissive_strength",
    "KHR_texture_transform"
  ],
  "accessors": [
    {
      "bufferView": 0,
      "componentType": 5126,
      "count": 1247,
      "type": "VEC3",
      "max": [
        4.849954,
        4.867265,
        2.3323178
      ],
      "min": [
        -4.849954,
        -4.8652654,
        -2.3323178
      ]
    },
    {
      "bufferView": 1,
      "componentType": 5125,
      "count": 1911,
      "type": "SCALAR",
      "max": [
        1246.0
      ],
      "min": [
        0.0
      ]
    },
    {
      "bufferView": 2,
      "componentType": 5126,
      "count": 1247,
      "type": "VEC3",
      "max": [
        0.9967518,
        1.0,
        0.97065234
      ],
      "min": [
        -0.95444566,
        -1.0,
        -0.97211874
      ]
    },
    {
      "bufferView": 3,
      "componentType": 5126,
      "count": 1247,
      "type": "VEC2",
      "max": [
        0.842597,
        0.67354476
      ],
      "min": [
        0.04186496,
        0.06310493
      ]
    }
  ],
  "asset": {
    "version": "2.0"
  },
  "buffers": [
    {
      "uri": "data:application/octet-stream;base64,",
      "byteLength": 14964
    },
    {
      "uri": "data:application/octet-stream;base64,",
      "byteLength": 7644
    },
    {
      "uri": "data:application/octet-stream;base64,",
      "byteLength": 14964
    },
    {
      "uri": "data:application/octet-stream;base64,",
      "byteLength": 9976
    },
    {
      "uri": "data:application/octet-stream;base64,",
      "byteLength": 4328
    }
  ],
  "bufferViews": [
    {
      "buffer": 0,
      "byteLength": 14964,
      "target": 34962
    },
    {
      "buffer": 1,
      "byteLength": 7644,
      "target": 34963
    },
    {
      "buffer": 2,
      "byteLength": 14964,
      "target": 34962
    },
    {
      "buffer": 3,
      "byteLength": 9976,
      "target": 34962
    },
    {
      "buffer": 4,
      "byteLength": 4328
    }
  ],
  "images": [
    {
      "mimeType": "image/png",
      "bufferView": 4
    }
  ],
  "materials": [
    {
      "name": "Material.001",
      "extensions": {
        "KHR_materials_transmission": {},
        "KHR_materials_clearcoat": {},
        "KHR_materials_ior": {
          "ior": 1.52
        },
        "KHR_materials_specular": {
          "specularFactor": 1.0,
          "specularColorFactor": [
            1.0,
            1.0,
            1.0
          ]
        }
      },
      "pbrMetallicRoughness": {
        "baseColorTexture": {
          "index": 0,
          "extensions": {
            "KHR_texture_transform": {
              "offset": [
                0.0,
                1.0
              ],
              "scale": [
                1.0,
                -1.0
              ]
            }
          }
        },
        "metallicFactor": 0.0
      }
    }
  ],
  "meshes": [
    {
      "primitives": [
        {
          "attributes": {
            "POSITION": 0,
            "NORMAL": 2,
            "TEXCOORD_0": 3
          },
          "indices": 1,
          "material": 0
        }
      ]
    }
  ],
  "nodes": [
    {
      "mesh": 0,
      "name": "Object_12"
    }
  ],
  "samplers": [
    {
      "magFilter": 9729,
      "minFilter": 9729
    }
  ],
  "scene": 0,
  "scenes": [
    {
      "nodes": [
        0
      ],
      "extensions": {}
    }
  ],
  "textures": [
    {
      "sampler": 0,
      "source": 0
    }
  ],
  "extensions": {}
}