{
  "accessors": [
    {
      "bufferView": 2,
      "componentType": 5126,
      "count": 4482,
      "max": [
        6.6796698570251465,
        6.6796698570251465,
        8.105660438537598
      ],
      "min": [
        -6.6796698570251465,
        -6.679659843444824,
        -6.737549781799316
      ],
      "type": "VEC3"
    },
    {
      "bufferView": 2,
      "byteOffset": 53784,
      "componentType": 5126,
      "count": 4482,
      "max": [
        1.0,
        1.0,
        1.0
      ],
      "min": [
        -1.0,
        -1.0,
        -1.0
      ],
      "type": "VEC3"
    },
    {
      "bufferView": 1,
      "componentType": 5126,
      "count": 4482,
      "max": [
        0.9945999979972839,
        0.9946100115776062
      ],
      "min": [
        0.007259999867528677,
        0.004689999856054783
      ],
      "type": "VEC2"
    },
    {
      "bufferView": 0,
      "componentType": 5125,
      "count": 26112,
      "type": "SCALAR"
    },
    {
      "bufferView": 2,
      "byteOffset": 107568,
      "componentType": 5126,
      "count": 6624,
      "max": [
        1.3548599481582642,
        1.3548599481582642,
        8.237099647521973
      ],
      "min": [
        -1.3548599481582642,
        -1.3548599481582642,
        7.017549991607666
      ],
      "type": "VEC3"
    },
    {
      "bufferView": 2,
      "byteOffset": 187056,
      "componentType": 5126,
      "count": 6624,
      "max": [
        0.9999998211860657,
        1.0,
        1.0
      ],
      "min": [
        -0.9999998211860657,
        -1.0,
        -1.0
      ],
      "type": "VEC3"
    },
    {
      "bufferView": 1,
      "byteOffset": 35856,
      "componentType": 5126,
      "count": 6624,
      "max": [
        1.0,
        1.0
      ],
      "min": [
        0.0,
        0.0
      ],
      "type": "VEC2"
    },
    {
      "bufferView": 0,
      "byteOffset": 104448,
      "componentType": 5125,
      "count": 29568,
      "type": "SCALAR"
    },
    {
      "bufferView": 2,
      "byteOffset": 266544,
      "componentType": 5126,
      "count": 546,
      "max": [
        0.11539000272750854,
        1.1147500276565552,
        10.055500030517578
      ],
      "min": [
        -0.11539000272750854,
        -0.998420000076294,
        7.671810150146484
      ],
      "type": "VEC3"
    },
    {
      "bufferView": 2,
      "byteOffset": 273096,
      "componentType": 5126,
      "count": 546,
      "max": [
        0.9999987483024597,
        0.9996368885040283,
        0.9993370175361633
      ],
      "min": [
        -0.9999987483024597,
        -0.9998716711997986,
        -0.9979305863380432
      ],
      "type": "VEC3"
    },
    {
      "bufferView": 0,
      "byteOffset": 222720,
      "componentType": 5125,
      "count": 3264,
      "type": "SCALAR"
    }
  ],
  "asset": {
    "extras": {
      "author": "Kenetics (https://sketchfab.com/Kenetics)",
      "license": "CC-BY-4.0 (http://creativecommons.org/licenses/by/4.0/)",
      "source": "https://sketchfab.com/3d-models/christmas-ball-570d317b99f94d7898fa30355d8083c5",
      "title": "Christmas Ball"
    },
    "generator": "Sketchfab-12.68.0",
    "version": "2.0"
  },
  "bufferViews": [
    {
      "buffer": 0,
      "byteLength": 235776,
      "name": "floatBufferViews",
      "target": 34963
    },
    {
      "buffer": 0,
      "byteLength": 88848,
      "byteOffset": 235776,
      "byteStride": 8,
      "name": "floatBufferViews",
      "target": 34962
    },
    {
      "buffer": 0,
      "byteLength": 279648,
      "byteOffset": 324624,
      "byteStride": 12,
      "name": "floatBufferViews",
      "target": 34962
    }
  ],
  "buffers": [
    {
      "byteLength": 604272,
      "uri": "scene.bin"
    }
  ],
  "extensionsRequired": [
    "KHR_materials_pbrSpecularGlossiness"
  ],
  "extensionsUsed": [
    "KHR_materials_pbrSpecularGlossiness"
  ],
  "images": [
    {
      "uri": "textures/MathRoundChecker_diffuse.png"
    }
  ],
  "materials": [
    {
      "extensions": {
        "KHR_materials_pbrSpecularGlossiness": {
          "diffuseFactor": [
            0.4346417682926829,
            0.4346417682926829,
            0.4346417682926829,
            1.0
          ],
          "glossinessFactor": 0.7999999970197678,
          "specularFactor": [
            0.24039634504559926,
            0.24039634504559926,
            0.24039634504559926
          ]
        }
      },
      "name": "MetalHook"
    },
    {
      "extensions": {
        "KHR_materials_pbrSpecularGlossiness": {
          "diffuseFactor": [
            0.25762658042391984,
            0.45903201219512196,
            0.4344041541421759,
            1.0
          ],
          "glossinessFactor": 0.638528963414634,
          "specularFactor": [
            0.16722561224795335,
            0.16722561224795335,
            0.16722561224795335
          ]
        }
      },
      "name": "Metal"
    },
    {
      "doubleSided": true,
      "extensions": {
        "KHR_materials_pbrSpecularGlossiness": {
          "diffuseFactor": [
            1.0,
            1.0,
            1.0,
            1.0
          ],
          "diffuseTexture": {
            "index": 0
          },
          "glossinessFactor": 0.9007240853658537,
          "specularFactor": [
            0.05015243977171982,
            0.05015243977171982,
            0.05015243977171982
          ]
        }
      },
      "name": "MathRoundChecker"
    }
  ],
  "meshes": [
    {
      "name": "Sphere_0",
      "primitives": [
        {
          "attributes": {
            "NORMAL": 1,
            "POSITION": 0,
            "TEXCOORD_0": 2
          },
          "indices": 3,
          "material": 2,
          "mode": 4
        }
      ]
    },
    {
      "name": "Sphere.001_0",
      "primitives": [
        {
          "attributes": {
            "NORMAL": 5,
            "POSITION": 4,
            "TEXCOORD_0": 6
          },
          "indices": 7,
          "material": 1,
          "mode": 4
        }
      ]
    },
    {
      "name": "CubeOpen_0",
      "primitives": [
        {
          "attributes": {
            "NORMAL": 9,
            "POSITION": 8
          },
          "indices": 10,
          "material": 0,
          "mode": 4
        }
      ]
    }
  ],
  "nodes": [
    {
      "children": [
        1
      ],
      "matrix": [
        0.012475795112550259,
        0.0,
        0.0,
        0.0,
        0.0,
        2.7701829968918587e-18,
        -0.012475795112550259,
        0.0,
        0.0,
        0.012475795112550259,
        2.7701829968918587e-18,
        0.0,
        0.0,
        0.0,
        0.0,
        1.0
      ],
      "name": "Sketchfab_model"
    },
    {
      "children": [
        2,
        4,
        6
      ],
      "name": "Root"
    },
    {
      "children": [
        3
      ],
      "name": "Sphere"
    },
    {
      "mesh": 0,
      "name": "Sphere_0"
    },
    {
      "children": [
        5
      ],
      "name": "Sphere.001"
    },
    {
      "mesh": 1,
      "name": "Sphere.001_0"
    },
    {
      "children": [
        7
      ],
      "name": "CubeOpen"
    },
    {
      "mesh": 2,
      "name": "CubeOpen_0"
    }
  ],
  "samplers": [
    {
      "magFilter": 9729,
      "minFilter": 9987,
      "wrapS": 10497,
      "wrapT": 10497
    }
  ],
  "scene": 0,
  "scenes": [
    {
      "name": "Sketchfab_Scene",
      "nodes": [
        0
      ]
    }
  ],
  "textures": [
    {
      "sampler": 0,
      "source": 0
    }
  ]
}
