{
  "accessors": [
    {
      "bufferView": 2,
      "componentType": 5126,
      "count": 386,
      "max": [
        3.285365581512451,
        3.0994415283203125,
        1.4730185270309448
      ],
      "min": [
        -2.6013669967651367,
        -2.9300851821899414,
        -4.895746231079102
      ],
      "type": "VEC3"
    },
    {
      "bufferView": 2,
      "byteOffset": 4632,
      "componentType": 5126,
      "count": 386,
      "max": [
        0.9429013729095459,
        0.8983866572380066,
        0.9964199066162109
      ],
      "min": [
        -0.9004901051521301,
        -0.913460373878479,
        0.27041885256767273
      ],
      "type": "VEC3"
    },
    {
      "bufferView": 1,
      "componentType": 5126,
      "count": 386,
      "max": [
        0.0,
        0.0
      ],
      "min": [
        0.0,
        0.0
      ],
      "type": "VEC2"
    },
    {
      "bufferView": 0,
      "componentType": 5125,
      "count": 1365,
      "type": "SCALAR"
    },
    {
      "bufferView": 2,
      "byteOffset": 9264,
      "componentType": 5126,
      "count": 186,
      "max": [
        2.065497636795044,
        2.0868890285491943,
        14.685749053955078
      ],
      "min": [
        -2.0590410232543945,
        -2.0098021030426025,
        -11.615476608276367
      ],
      "type": "VEC3"
    },
    {
      "bufferView": 2,
      "byteOffset": 11496,
      "componentType": 5126,
      "count": 186,
      "max": [
        0.9998875856399536,
        0.9998875260353088,
        1.0
      ],
      "min": [
        -0.9998875856399536,
        -0.9998875260353088,
        -0.9999876618385315
      ],
      "type": "VEC3"
    },
    {
      "bufferView": 1,
      "byteOffset": 3088,
      "componentType": 5126,
      "count": 186,
      "max": [
        0.875,
        1.0024346113204956
      ],
      "min": [
        0.125,
        -0.002434646710753441
      ],
      "type": "VEC2"
    },
    {
      "bufferView": 0,
      "byteOffset": 5460,
      "componentType": 5125,
      "count": 420,
      "type": "SCALAR"
    },
    {
      "bufferView": 2,
      "byteOffset": 13728,
      "componentType": 5126,
      "count": 772,
      "max": [
        3.285365581512451,
        3.0989460945129395,
        1.542306661605835
      ],
      "min": [
        -2.6013669967651367,
        -2.9300851821899414,
        -4.942541599273682
      ],
      "type": "VEC3"
    },
    {
      "bufferView": 2,
      "byteOffset": 22992,
      "componentType": 5126,
      "count": 772,
      "max": [
        0.996731698513031,
        0.9991853833198547,
        0.9998979568481445
      ],
      "min": [
        -0.9991374015808105,
        -0.9972641468048096,
        -0.9982098937034607
      ],
      "type": "VEC3"
    },
    {
      "bufferView": 1,
      "byteOffset": 4576,
      "componentType": 5126,
      "count": 772,
      "max": [
        0.0,
        0.0
      ],
      "min": [
        0.0,
        0.0
      ],
      "type": "VEC2"
    },
    {
      "bufferView": 0,
      "byteOffset": 7140,
      "componentType": 5125,
      "count": 4620,
      "type": "SCALAR"
    }
  ],
  "asset": {
    "extras": {
      "author": "Msls (https://sketchfab.com/Msls)",
      "license": "CC-BY-4.0 (http://creativecommons.org/licenses/by/4.0/)",
      "source": "https://sketchfab.com/3d-models/low-poly-snow-covered-pine-tree-b3ff9b8874304c35a54de99a1c55f271",
      "title": "Low-Poly Snow-Covered Pine Tree"
    },
    "generator": "Sketchfab-16.35.0",
    "version": "2.0"
  },
  "bufferViews": [
    {
      "buffer": 0,
      "byteLength": 25620,
      "name": "floatBufferViews",
      "target": 34963
    },
    {
      "buffer": 0,
      "byteLength": 10752,
      "byteOffset": 25620,
      "byteStride": 8,
      "name": "floatBufferViews",
      "target": 34962
    },
    {
      "buffer": 0,
      "byteLength": 32256,
      "byteOffset": 36372,
      "byteStride": 12,
      "name": "floatBufferViews",
      "target": 34962
    }
  ],
  "buffers": [
    {
      "byteLength": 68628,
      "uri": "scene.bin"
    }
  ],
  "materials": [
    {
      "doubleSided": true,
      "name": "Material.001",
      "pbrMetallicRoughness": {
        "baseColorFactor": [
          0.00861477,
          0.288298,
          0.0123652,
          1.0
        ],
        "metallicFactor": 0.0,
        "roughnessFactor": 0.9532851864871313
      }
    },
    {
      "doubleSided": true,
      "name": "Material.002",
      "pbrMetallicRoughness": {
        "baseColorFactor": [
          0.588862,
          0.14767,
          0.0923467,
          1.0
        ],
        "metallicFactor": 0.0,
        "roughnessFactor": 0.9468994057136122
      }
    },
    {
      "doubleSided": true,
      "name": "Material.003",
      "pbrMetallicRoughness": {
        "baseColorFactor": [
          0.8,
          0.8,
          0.8,
          1.0
        ],
        "metallicFactor": 0.0,
        "roughnessFactor": 0.8211145618000169
      }
    }
  ],
  "meshes": [
    {
      "name": "Circle.005_Material.001_0",
      "primitives": [
        {
          "attributes": {
            "NORMAL": 1,
            "POSITION": 0,
            "TEXCOORD_0": 2
          },
          "indices": 3,
          "material": 0,
          "mode": 4
        }
      ]
    },
    {
      "name": "Cube_Material.002_0",
      "primitives": [
        {
          "attributes": {
            "NORMAL": 5,
            "POSITION": 4,
            "TEXCOORD_0": 6
          },
          "indices": 7,
          "material": 1,
          "mode": 4
        }
      ]
    },
    {
      "name": "Circle.001_Material.003_0",
      "primitives": [
        {
          "attributes": {
            "NORMAL": 9,
            "POSITION": 8,
            "TEXCOORD_0": 10
          },
          "indices": 11,
          "material": 2,
          "mode": 4
        }
      ]
    }
  ],
  "nodes": [
    {
      "children": [
        1
      ],
      "matrix": [
        1.1956779956817627,
        0.0,
        0.0,
        0.0,
        0.0,
        2.654938481687103e-16,
        -1.1956779956817627,
        0.0,
        0.0,
        1.1956779956817627,
        2.654938481687103e-16,
        0.0,
        0.0,
        0.0,
        0.0,
        1.0
      ],
      "name": "Sketchfab_model"
    },
    {
      "children": [
        2
      ],
      "matrix": [
        0.009999999776482582,
        0.0,
        0.0,
        0.0,
        0.0,
        0.0,
        0.009999999776482582,
        0.0,
        0.0,
        -0.009999999776482582,
        0.0,
        0.0,
        0.0,
        0.0,
        0.0,
        1.0
      ],
      "name": "8089c798d0bf4502951e26a1939000a9.fbx"
    },
    {
      "children": [
        3,
        5,
        7
      ],
      "name": "RootNode"
    },
    {
      "children": [
        4
      ],
      "matrix": [
        33.02802240372555,
        -1.5708273749018646,
        4.367011724220679,
        0.0,
        4.334945807514698,
        -0.711342942014456,
        -33.04137779514228,
        0.0,
        2.1984726377819026,
        44.370999943726744,
        -0.6668226135305054,
        0.0,
        -2.4103057384490967,
        180.50442504882813,
        0.9027866721153259,
        1.0
      ],
      "name": "Circle.005"
    },
    {
      "mesh": 0,
      "name": "Circle.005_Material.001_0"
    },
    {
      "children": [
        6
      ],
      "matrix": [
        10.78061294555664,
        0.0,
        0.0,
        0.0,
        0.0,
        -1.7563847853504607e-06,
        -10.780612945556499,
        0.0,
        0.0,
        10.780612945556499,
        -1.7563847853504607e-06,
        0.0,
        0.0,
        23.267013549804688,
        0.0,
        1.0
      ],
      "name": "Cube"
    },
    {
      "mesh": 1,
      "name": "Cube_Material.002_0"
    },
    {
      "children": [
        8
      ],
      "matrix": [
        31.3097570619223,
        -1.489105914159935,
        4.139820256283123,
        0.0,
        4.109423167734434,
        -0.6743358039334997,
        -31.322422340285147,
        0.0,
        2.0840978770985745,
        42.0626143797545,
        -0.6321314031283001,
        0.0,
        -2.4103057384490967,
        186.18919372558594,
        0.9027866721153259,
        1.0
      ],
      "name": "Circle.001"
    },
    {
      "mesh": 2,
      "name": "Circle.001_Material.003_0"
    }
  ],
  "scene": 0,
  "scenes": [
    {
      "name": "Sketchfab_Scene",
      "nodes": [
        0
      ]
    }
  ]
}
