{
  "accessors": [
    {
      "bufferView": 2,
      "componentType": 5126,
      "count": 457,
      "max": [
        0.5624105930328369,
        0.07000020146369934,
        0.6583042740821838
      ],
      "min": [
        -0.4913569390773773,
        -0.09404519200325012,
        -3.413847426969596e-09
      ],
      "type": "VEC3"
    },
    {
      "bufferView": 2,
      "byteOffset": 5484,
      "componentType": 5126,
      "count": 457,
      "max": [
        1.0,
        0.9999945759773254,
        1.0
      ],
      "min": [
        -1.0,
        -0.9999908804893494,
        -1.0
      ],
      "type": "VEC3"
    },
    {
      "bufferView": 1,
      "componentType": 5126,
      "count": 457,
      "max": [
        0.9704724550247192,
        0.9730501174926758
      ],
      "min": [
        0.5916598439216614,
        0.8382843732833862
      ],
      "type": "VEC2"
    },
    {
      "bufferView": 0,
      "componentType": 5125,
      "count": 693,
      "type": "SCALAR"
    },
    {
      "bufferView": 2,
      "byteOffset": 10968,
      "componentType": 5126,
      "count": 60,
      "max": [
        0.19951653480529785,
        1.6195619106292725,
        1.9744036197662354
      ],
      "min": [
        -0.12892186641693115,
        -1.472702980041504,
        0.0
      ],
      "type": "VEC3"
    },
    {
      "bufferView": 2,
      "byteOffset": 11688,
      "componentType": 5126,
      "count": 60,
      "max": [
        1.0,
        1.0,
        1.0
      ],
      "min": [
        -1.0,
        -1.0,
        -1.0
      ],
      "type": "VEC3"
    },
    {
      "bufferView": 1,
      "byteOffset": 3656,
      "componentType": 5126,
      "count": 60,
      "max": [
        0.875,
        1.0
      ],
      "min": [
        0.125,
        0.0
      ],
      "type": "VEC2"
    },
    {
      "bufferView": 0,
      "byteOffset": 2772,
      "componentType": 5125,
      "count": 90,
      "type": "SCALAR"
    }
  ],
  "asset": {
    "extras": {
      "author": "assetfactory (https://sketchfab.com/assetfactory)",
      "license": "SKETCHFAB Standard (https://sketchfab.com/licenses)",
      "source": "https://sketchfab.com/3d-models/low-poly-wood-fence-with-snow-fabc2ab1d035464b845e8cc5b047ad50",
      "title": "Low poly wood fence with snow"
    },
    "generator": "Sketchfab-16.33.0",
    "version": "2.0"
  },
  "bufferViews": [
    {
      "buffer": 0,
      "byteLength": 3132,
      "name": "floatBufferViews",
      "target": 34963
    },
    {
      "buffer": 0,
      "byteLength": 4136,
      "byteOffset": 3132,
      "byteStride": 8,
      "name": "floatBufferViews",
      "target": 34962
    },
    {
      "buffer": 0,
      "byteLength": 12408,
      "byteOffset": 7268,
      "byteStride": 12,
      "name": "floatBufferViews",
      "target": 34962
    }
  ],
  "buffers": [
    {
      "byteLength": 19676,
      "uri": "scene.bin"
    }
  ],
  "images": [
    {
      "uri": "textures/Medieval_baseColor.png"
    }
  ],
  "materials": [
    {
      "doubleSided": true,
      "name": "Medieval",
      "pbrMetallicRoughness": {
        "baseColorTexture": {
          "index": 0
        },
        "metallicFactor": 0.0
      }
    },
    {
      "alphaMode": "BLEND",
      "doubleSided": true,
      "name": "COLLIDER",
      "pbrMetallicRoughness": {
        "baseColorFactor": [
          0.0,
          0.004472270000000013,
          0.7999999999999999,
          0.0
        ],
        "metallicFactor": 0.0,
        "roughnessFactor": 0.9863692499250046
      }
    }
  ],
  "meshes": [
    {
      "name": "Item5_Medieval_0",
      "primitives": [
        {
          "attributes": {
            "NORMAL": 1,
            "POSITION": 0,
            "TEXCOORD_0": 2
          },
          "indices": 3,
          "material": 0,
          "mode": 4
        }
      ]
    },
    {
      "name": "Item5_Collider_COLLIDER_0",
      "primitives": [
        {
          "attributes": {
            "NORMAL": 5,
            "POSITION": 4,
            "TEXCOORD_0": 6
          },
          "indices": 7,
          "material": 1,
          "mode": 4
        }
      ]
    }
  ],
  "nodes": [
    {
      "children": [
        1
      ],
      "matrix": [
        1.0,
        0.0,
        0.0,
        0.0,
        0.0,
        2.220446049250313e-16,
        -1.0,
        0.0,
        0.0,
        1.0,
        2.220446049250313e-16,
        0.0,
        0.0,
        0.0,
        0.0,
        1.0
      ],
      "name": "Sketchfab_model"
    },
    {
      "children": [
        2
      ],
      "matrix": [
        0.009999999776482582,
        0.0,
        0.0,
        0.0,
        0.0,
        0.0,
        0.009999999776482582,
        0.0,
        0.0,
        -0.009999999776482582,
        0.0,
        0.0,
        0.0,
        0.0,
        0.0,
        1.0
      ],
      "name": "Item5.fbx"
    },
    {
      "children": [
        3,
        5
      ],
      "name": "RootNode"
    },
    {
      "children": [
        4
      ],
      "matrix": [
        3.523726601374813e-05,
        -6.231151713180635e-15,
        -112.25045013427183,
        0.0,
        -112.25045013427173,
        -4.9066232105773655e-06,
        -3.523726603244159e-05,
        0.0,
        -4.9066232105773655e-06,
        112.25045013427727,
        -1.57025023172152e-12,
        0.0,
        0.0,
        0.0,
        0.0,
        1.0
      ],
      "name": "Item5"
    },
    {
      "mesh": 0,
      "name": "Item5_Medieval_0"
    },
    {
      "children": [
        6
      ],
      "matrix": [
        37.45157241820494,
        0.0,
        -2.4406547580011543e-05,
        0.0,
        -2.4406547580011218e-05,
        -6.101635622667619e-06,
        -37.45157241820444,
        0.0,
        -3.976331314276692e-12,
        37.45157241821239,
        -6.101635622667619e-06,
        0.0,
        0.0,
        0.0,
        0.0,
        1.0
      ],
      "name": "Item5_Collider"
    },
    {
      "mesh": 1,
      "name": "Item5_Collider_COLLIDER_0"
    }
  ],
  "samplers": [
    {
      "magFilter": 9729,
      "minFilter": 9987,
      "wrapS": 10497,
      "wrapT": 10497
    }
  ],
  "scene": 0,
  "scenes": [
    {
      "name": "Sketchfab_Scene",
      "nodes": [
        0
      ]
    }
  ],
  "textures": [
    {
      "sampler": 0,
      "source": 0
    }
  ]
}
