{
  "extensionsUsed": [
    "KHR_materials_transmission",
    "KHR_materials_clearcoat",
    "KHR_materials_ior",
    "KHR_materials_specular",
    "KHR_materials_emissive_strength",
    "KHR_texture_transform"
  ],
  "accessors": [
    {
      "bufferView": 0,
      "componentType": 5126,
      "count": 6250,
      "type": "VEC3",
      "max": [
        1.1439332,
        0.91030544,
        1.0732071
      ],
      "min": [
        -1.1439332,
        -0.91030544,
        -1.0732071
      ]
    },
    {
      "bufferView": 1,
      "componentType": 5125,
      "count": 9222,
      "type": "SCALAR",
      "max": [
        6249.0
      ],
      "min": [
        0.0
      ]
    },
    {
      "bufferView": 2,
      "componentType": 5126,
      "count": 6250,
      "type": "VEC3",
      "max": [
        0.9727977,
        0.97195125,
        0.99660105
      ],
      "min": [
        -0.99564415,
        -0.96957076,
        -0.99121994
      ]
    },
    {
      "bufferView": 3,
      "componentType": 5126,
      "count": 6250,
      "type": "VEC2",
      "max": [
        0.47626474,
        0.9310832
      ],
      "min": [
        0.01077345,
        0.06983927
      ]
    }
  ],
  "asset": {
    "version": "2.0"
  },
  "buffers": [
    {
      "uri": "data:application/octet-stream;base64,",
      "byteLength": 75000
    },
    {
      "uri": "data:application/octet-stream;base64,",
      "byteLength": 36888
    },
    {
      "uri": "data:application/octet-stream;base64,",
      "byteLength": 75000
    },
    {
      "uri": "data:application/octet-stream;base64,",
      "byteLength": 50000
    },
    {
      "uri": "data:application/octet-stream;base64,",
      "byteLength": 4328
    }
  ],
  "bufferViews": [
    {
      "buffer": 0,
      "byteLength": 75000,
      "target": 34962
    },
    {
      "buffer": 1,
      "byteLength": 36888,
      "target": 34963
    },
    {
      "buffer": 2,
      "byteLength": 75000,
      "target": 34962
    },
    {
      "buffer": 3,
      "byteLength": 50000,
      "target": 34962
    },
    {
      "buffer": 4,
      "byteLength": 4328
    }
  ],
  "images": [
    {
      "mimeType": "image/png",
      "bufferView": 4
    }
  ],
  "materials": [
    {
      "name": "Material.001",
      "extensions": {
        "KHR_materials_transmission": {},
        "KHR_materials_clearcoat": {},
        "KHR_materials_ior": {
          "ior": 1.52
        },
        "KHR_materials_specular": {
          "specularFactor": 1.0,
          "specularColorFactor": [
            1.0,
            1.0,
            1.0
          ]
        }
      },
      "pbrMetallicRoughness": {
        "baseColorTexture": {
          "index": 0,
          "extensions": {
            "KHR_texture_transform": {
              "offset": [
                0.0,
                1.0
              ],
              "scale": [
                1.0,
                -1.0
              ]
            }
          }
        },
        "metallicFactor": 0.0
      }
    }
  ],
  "meshes": [
    {
      "primitives": [
        {
          "attributes": {
            "POSITION": 0,
            "NORMAL": 2,
            "TEXCOORD_0": 3
          },
          "indices": 1,
          "material": 0
        }
      ]
    }
  ],
  "nodes": [
    {
      "mesh": 0,
      "name": "Object_20"
    }
  ],
  "samplers": [
    {
      "magFilter": 9729,
      "minFilter": 9729
    }
  ],
  "scene": 0,
  "scenes": [
    {
      "nodes": [
        0
      ],
      "extensions": {}
    }
  ],
  "textures": [
    {
      "sampler": 0,
      "source": 0
    }
  ],
  "extensions": {}
}