{
  "extensionsUsed": [
    "KHR_materials_transmission",
    "KHR_materials_clearcoat",
    "KHR_materials_ior",
    "KHR_materials_specular",
    "KHR_materials_emissive_strength",
    "KHR_texture_transform"
  ],
  "accessors": [
    {
      "bufferView": 0,
      "componentType": 5126,
      "count": 352,
      "type": "VEC3",
      "max": [
        0.31382504,
        1.4980994,
        2.2142298
      ],
      "min": [
        -0.31382504,
        -1.4980994,
        -2.2142298
      ]
    },
    {
      "bufferView": 1,
      "componentType": 5125,
      "count": 528,
      "type": "SCALAR",
      "max": [
        351.0
      ],
      "min": [
        0.0
      ]
    },
    {
      "bufferView": 2,
      "componentType": 5126,
      "count": 352,
      "type": "VEC3",
      "max": [
        1.0,
        1.0,
        1.0
      ],
      "min": [
        -1.0,
        -1.0,
        -1.0
      ]
    },
    {
      "bufferView": 3,
      "componentType": 5126,
      "count": 352,
      "type": "VEC2",
      "max": [
        0.5567288,
        0.91296625
      ],
      "min": [
        0.5309259,
        0.059776366
      ]
    }
  ],
  "asset": {
    "version": "2.0"
  },
  "buffers": [
    {
      "uri": "data:application/octet-stream;base64,",
      "byteLength": 4224
    },
    {
      "uri": "data:application/octet-stream;base64,",
      "byteLength": 2112
    },
    {
      "uri": "data:application/octet-stream;base64,",
      "byteLength": 4224
    },
    {
      "uri": "data:application/octet-stream;base64,",
      "byteLength": 2816
    },
    {
      "uri": "data:application/octet-stream;base64,",
      "byteLength": 4328
    }
  ],
  "bufferViews": [
    {
      "buffer": 0,
      "byteLength": 4224,
      "target": 34962
    },
    {
      "buffer": 1,
      "byteLength": 2112,
      "target": 34963
    },
    {
      "buffer": 2,
      "byteLength": 4224,
      "target": 34962
    },
    {
      "buffer": 3,
      "byteLength": 2816,
      "target": 34962
    },
    {
      "buffer": 4,
      "byteLength": 4328
    }
  ],
  "images": [
    {
      "mimeType": "image/png",
      "bufferView": 4
    }
  ],
  "materials": [
    {
      "name": "Material.001",
      "extensions": {
        "KHR_materials_transmission": {},
        "KHR_materials_clearcoat": {},
        "KHR_materials_ior": {
          "ior": 1.52
        },
        "KHR_materials_specular": {
          "specularFactor": 1.0,
          "specularColorFactor": [
            1.0,
            1.0,
            1.0
          ]
        }
      },
      "pbrMetallicRoughness": {
        "baseColorTexture": {
          "index": 0,
          "extensions": {
            "KHR_texture_transform": {
              "offset": [
                0.0,
                1.0
              ],
              "scale": [
                1.0,
                -1.0
              ]
            }
          }
        },
        "metallicFactor": 0.0
      }
    }
  ],
  "meshes": [
    {
      "primitives": [
        {
          "attributes": {
            "POSITION": 0,
            "NORMAL": 2,
            "TEXCOORD_0": 3
          },
          "indices": 1,
          "material": 0
        }
      ]
    }
  ],
  "nodes": [
    {
      "mesh": 0,
      "name": "Object_40"
    }
  ],
  "samplers": [
    {
      "magFilter": 9729,
      "minFilter": 9729
    }
  ],
  "scene": 0,
  "scenes": [
    {
      "nodes": [
        0
      ],
      "extensions": {}
    }
  ],
  "textures": [
    {
      "sampler": 0,
      "source": 0
    }
  ],
  "extensions": {}
}