{
  "extensionsUsed": [
    "KHR_materials_transmission",
    "KHR_materials_clearcoat",
    "KHR_materials_ior",
    "KHR_materials_specular",
    "KHR_materials_emissive_strength",
    "KHR_texture_transform"
  ],
  "accessors": [
    {
      "bufferView": 0,
      "componentType": 5126,
      "count": 2461,
      "type": "VEC3",
      "max": [
        7.553616,
        7.556382,
        5.494918
      ],
      "min": [
        -7.553616,
        -7.556382,
        -5.494918
      ]
    },
    {
      "bufferView": 1,
      "componentType": 5125,
      "count": 3795,
      "type": "SCALAR",
      "max": [
        2460.0
      ],
      "min": [
        0.0
      ]
    },
    {
      "bufferView": 2,
      "componentType": 5126,
      "count": 2461,
      "type": "VEC3",
      "max": [
        0.9946599,
        1.0,
        0.9762797
      ],
      "min": [
        -0.99657625,
        -1.0,
        -0.9706529
      ]
    },
    {
      "bufferView": 3,
      "componentType": 5126,
      "count": 2461,
      "type": "VEC2",
      "max": [
        0.85556465,
        0.9133377
      ],
      "min": [
        0.030154943,
        0.073099494
      ]
    }
  ],
  "asset": {
    "version": "2.0"
  },
  "buffers": [
    {
      "uri": "data:application/octet-stream;base64,",
      "byteLength": 29532
    },
    {
      "uri": "data:application/octet-stream;base64,",
      "byteLength": 15180
    },
    {
      "uri": "data:application/octet-stream;base64,",
      "byteLength": 29532
    },
    {
      "uri": "data:application/octet-stream;base64,",
      "byteLength": 19688
    },
    {
      "uri": "data:application/octet-stream;base64,",
      "byteLength": 4328
    }
  ],
  "bufferViews": [
    {
      "buffer": 0,
      "byteLength": 29532,
      "target": 34962
    },
    {
      "buffer": 1,
      "byteLength": 15180,
      "target": 34963
    },
    {
      "buffer": 2,
      "byteLength": 29532,
      "target": 34962
    },
    {
      "buffer": 3,
      "byteLength": 19688,
      "target": 34962
    },
    {
      "buffer": 4,
      "byteLength": 4328
    }
  ],
  "images": [
    {
      "mimeType": "image/png",
      "bufferView": 4
    }
  ],
  "materials": [
    {
      "name": "Material.001",
      "extensions": {
        "KHR_materials_transmission": {},
        "KHR_materials_clearcoat": {},
        "KHR_materials_ior": {
          "ior": 1.52
        },
        "KHR_materials_specular": {
          "specularFactor": 1.0,
          "specularColorFactor": [
            1.0,
            1.0,
            1.0
          ]
        }
      },
      "pbrMetallicRoughness": {
        "baseColorTexture": {
          "index": 0,
          "extensions": {
            "KHR_texture_transform": {
              "offset": [
                0.0,
                1.0
              ],
              "scale": [
                1.0,
                -1.0
              ]
            }
          }
        },
        "metallicFactor": 0.0
      }
    }
  ],
  "meshes": [
    {
      "primitives": [
        {
          "attributes": {
            "POSITION": 0,
            "NORMAL": 2,
            "TEXCOORD_0": 3
          },
          "indices": 1,
          "material": 0
        }
      ]
    }
  ],
  "nodes": [
    {
      "mesh": 0,
      "name": "Object_11"
    }
  ],
  "samplers": [
    {
      "magFilter": 9729,
      "minFilter": 9729
    }
  ],
  "scene": 0,
  "scenes": [
    {
      "nodes": [
        0
      ],
      "extensions": {}
    }
  ],
  "textures": [
    {
      "sampler": 0,
      "source": 0
    }
  ],
  "extensions": {}
}