{
  "extensionsUsed": [
    "KHR_materials_transmission",
    "KHR_materials_clearcoat",
    "KHR_materials_ior",
    "KHR_materials_specular",
    "KHR_materials_emissive_strength",
    "KHR_texture_transform"
  ],
  "accessors": [
    {
      "bufferView": 0,
      "componentType": 5126,
      "count": 2264,
      "type": "VEC3",
      "max": [
        12.684684,
        13.026787,
        3.968695
      ],
      "min": [
        -1.3289701,
        -1.2537152,
        -6.6109276
      ]
    },
    {
      "bufferView": 1,
      "componentType": 5125,
      "count": 3396,
      "type": "SCALAR",
      "max": [
        2263.0
      ],
      "min": [
        0.0
      ]
    },
    {
      "bufferView": 2,
      "componentType": 5126,
      "count": 2264,
      "type": "VEC3",
      "max": [
        0.99401516,
        0.9922206,
        0.9728564
      ],
      "min": [
        -0.9841133,
        -0.9996768,
        -0.9753567
      ]
    },
    {
      "bufferView": 3,
      "componentType": 5126,
      "count": 2264,
      "type": "VEC2",
      "max": [
        0.6029181,
        0.9125484
      ],
      "min": [
        0.0144181345,
        0.032518942
      ]
    }
  ],
  "asset": {
    "version": "2.0"
  },
  "buffers": [
    {
      "uri": "data:application/octet-stream;base64,",
      "byteLength": 27168
    },
    {
      "uri": "data:application/octet-stream;base64,",
      "byteLength": 13584
    },
    {
      "uri": "data:application/octet-stream;base64,",
      "byteLength": 27168
    },
    {
      "uri": "data:application/octet-stream;base64,",
      "byteLength": 18112
    },
    {
      "uri": "data:application/octet-stream;base64,",
      "byteLength": 4328
    }
  ],
  "bufferViews": [
    {
      "buffer": 0,
      "byteLength": 27168,
      "target": 34962
    },
    {
      "buffer": 1,
      "byteLength": 13584,
      "target": 34963
    },
    {
      "buffer": 2,
      "byteLength": 27168,
      "target": 34962
    },
    {
      "buffer": 3,
      "byteLength": 18112,
      "target": 34962
    },
    {
      "buffer": 4,
      "byteLength": 4328
    }
  ],
  "images": [
    {
      "mimeType": "image/png",
      "bufferView": 4
    }
  ],
  "materials": [
    {
      "name": "Material.001",
      "extensions": {
        "KHR_materials_transmission": {},
        "KHR_materials_clearcoat": {},
        "KHR_materials_ior": {
          "ior": 1.52
        },
        "KHR_materials_specular": {
          "specularFactor": 1.0,
          "specularColorFactor": [
            1.0,
            1.0,
            1.0
          ]
        }
      },
      "pbrMetallicRoughness": {
        "baseColorTexture": {
          "index": 0,
          "extensions": {
            "KHR_texture_transform": {
              "offset": [
                0.0,
                1.0
              ],
              "scale": [
                1.0,
                -1.0
              ]
            }
          }
        },
        "metallicFactor": 0.0
      }
    }
  ],
  "meshes": [
    {
      "primitives": [
        {
          "attributes": {
            "POSITION": 0,
            "NORMAL": 2,
            "TEXCOORD_0": 3
          },
          "indices": 1,
          "material": 0
        }
      ]
    }
  ],
  "nodes": [
    {
      "mesh": 0,
      "name": "Object_7"
    }
  ],
  "samplers": [
    {
      "magFilter": 9729,
      "minFilter": 9729
    }
  ],
  "scene": 0,
  "scenes": [
    {
      "nodes": [
        0
      ],
      "extensions": {}
    }
  ],
  "textures": [
    {
      "sampler": 0,
      "source": 0
    }
  ],
  "extensions": {}
}