{
  "extensionsUsed": [
    "KHR_materials_transmission",
    "KHR_materials_clearcoat",
    "KHR_materials_ior",
    "KHR_materials_specular",
    "KHR_materials_emissive_strength",
    "KHR_texture_transform"
  ],
  "accessors": [
    {
      "bufferView": 0,
      "componentType": 5126,
      "count": 293,
      "type": "VEC3",
      "max": [
        4.2353754,
        10.644576,
        21.075916
      ],
      "min": [
        0.25011992,
        -1.2286052,
        19.861301
      ]
    },
    {
      "bufferView": 1,
      "componentType": 5125,
      "count": 435,
      "type": "SCALAR",
      "max": [
        292.0
      ],
      "min": [
        0.0
      ]
    },
    {
      "bufferView": 2,
      "componentType": 5126,
      "count": 293,
      "type": "VEC3",
      "max": [
        1.0,
        1.0,
        0.96285343
      ],
      "min": [
        -1.0,
        -1.0,
        -1.0
      ]
    },
    {
      "bufferView": 3,
      "componentType": 5126,
      "count": 293,
      "type": "VEC2",
      "max": [
        0.6825531,
        0.8939731
      ],
      "min": [
        0.15235035,
        0.35568303
      ]
    },
    {
      "bufferView": 5,
      "componentType": 5126,
      "count": 3,
      "type": "VEC3",
      "max": [
        3.9741402,
        10.014964,
        20.892239
      ],
      "min": [
        0.5113547,
        6.97812,
        20.892239
      ]
    },
    {
      "bufferView": 6,
      "componentType": 5125,
      "count": 3,
      "type": "SCALAR",
      "max": [
        2.0
      ],
      "min": [
        0.0
      ]
    },
    {
      "bufferView": 7,
      "componentType": 5126,
      "count": 3,
      "type": "VEC3",
      "max": [
        0.0,
        -3.90902E-08,
        1.0
      ],
      "min": [
        0.0,
        -3.90902E-08,
        1.0
      ]
    },
    {
      "bufferView": 8,
      "componentType": 5126,
      "count": 3,
      "type": "VEC2",
      "max": [
        0.30585143,
        0.62804306
      ],
      "min": [
        0.02863839,
        0.36123022
      ]
    }
  ],
  "asset": {
    "version": "2.0"
  },
  "buffers": [
    {
      "uri": "data:application/octet-stream;base64,",
      "byteLength": 3516
    },
    {
      "uri": "data:application/octet-stream;base64,",
      "byteLength": 1740
    },
    {
      "uri": "data:application/octet-stream;base64,",
      "byteLength": 3516
    },
    {
      "uri": "data:application/octet-stream;base64,",
      "byteLength": 2344
    },
    {
      "uri": "data:application/octet-stream;base64,",
      "byteLength": 4328
    },
    {
      "uri": "data:application/octet-stream;base64,",
      "byteLength": 36
    },
    {
      "uri": "data:application/octet-stream;base64,",
      "byteLength": 12
    },
    {
      "uri": "data:application/octet-stream;base64,",
      "byteLength": 36
    },
    {
      "uri": "data:application/octet-stream;base64,",
      "byteLength": 24
    },
    {
      "uri": "data:application/octet-stream;base64,",
      "byteLength": 208144
    }
  ],
  "bufferViews": [
    {
      "buffer": 0,
      "byteLength": 3516,
      "target": 34962
    },
    {
      "buffer": 1,
      "byteLength": 1740,
      "target": 34963
    },
    {
      "buffer": 2,
      "byteLength": 3516,
      "target": 34962
    },
    {
      "buffer": 3,
      "byteLength": 2344,
      "target": 34962
    },
    {
      "buffer": 4,
      "byteLength": 4328
    },
    {
      "buffer": 5,
      "byteLength": 36,
      "target": 34962
    },
    {
      "buffer": 6,
      "byteLength": 12,
      "target": 34963
    },
    {
      "buffer": 7,
      "byteLength": 36,
      "target": 34962
    },
    {
      "buffer": 8,
      "byteLength": 24,
      "target": 34962
    },
    {
      "buffer": 9,
      "byteLength": 208144
    }
  ],
  "images": [
    {
      "mimeType": "image/png",
      "bufferView": 4
    },
    {
      "mimeType": "image/png",
      "bufferView": 9
    }
  ],
  "materials": [
    {
      "name": "Material.001",
      "extensions": {
        "KHR_materials_transmission": {},
        "KHR_materials_clearcoat": {},
        "KHR_materials_ior": {
          "ior": 1.52
        },
        "KHR_materials_specular": {
          "specularFactor": 1.0,
          "specularColorFactor": [
            1.0,
            1.0,
            1.0
          ]
        }
      },
      "pbrMetallicRoughness": {
        "baseColorTexture": {
          "index": 0,
          "extensions": {
            "KHR_texture_transform": {
              "offset": [
                0.0,
                1.0
              ],
              "scale": [
                1.0,
                -1.0
              ]
            }
          }
        },
        "metallicFactor": 0.0
      }
    },
    {
      "name": "Material.002",
      "extensions": {
        "KHR_materials_transmission": {},
        "KHR_materials_clearcoat": {},
        "KHR_materials_ior": {
          "ior": 1.52
        },
        "KHR_materials_specular": {
          "specularFactor": 1.0,
          "specularColorFactor": [
            1.0,
            1.0,
            1.0
          ]
        }
      },
      "pbrMetallicRoughness": {
        "baseColorTexture": {
          "index": 1,
          "extensions": {
            "KHR_texture_transform": {
              "offset": [
                0.0,
                1.0
              ],
              "scale": [
                1.0,
                -1.0
              ]
            }
          }
        },
        "metallicFactor": 0.0
      }
    }
  ],
  "meshes": [
    {
      "primitives": [
        {
          "attributes": {
            "POSITION": 0,
            "NORMAL": 2,
            "TEXCOORD_0": 3
          },
          "indices": 1,
          "material": 0
        }
      ]
    },
    {
      "primitives": [
        {
          "attributes": {
            "POSITION": 4,
            "NORMAL": 6,
            "TEXCOORD_0": 7
          },
          "indices": 5,
          "material": 1
        }
      ]
    }
  ],
  "nodes": [
    {
      "mesh": 0,
      "name": "Object_46"
    },
    {
      "mesh": 1,
      "name": "Object_47"
    }
  ],
  "samplers": [
    {
      "magFilter": 9729,
      "minFilter": 9729
    }
  ],
  "scene": 0,
  "scenes": [
    {
      "nodes": [
        0,
        1
      ],
      "extensions": {}
    }
  ],
  "textures": [
    {
      "sampler": 0,
      "source": 0
    },
    {
      "sampler": 0,
      "source": 1
    }
  ],
  "extensions": {}
}