{
  "accessors": [
    {
      "bufferView": 2,
      "componentType": 5126,
      "count": 94,
      "max": [
        9.263575553894043,
        1.1874568462371826,
        6.214088439941406
      ],
      "min": [
        -9.229506492614746,
        -1.1806530952453613,
        -6.102395057678223
      ],
      "type": "VEC3"
    },
    {
      "bufferView": 2,
      "byteOffset": 1128,
      "componentType": 5126,
      "count": 94,
      "type": "VEC3"
    },
    {
      "bufferView": 3,
      "componentType": 5126,
      "count": 94,
      "type": "VEC4"
    },
    {
      "bufferView": 1,
      "componentType": 5126,
      "count": 94,
      "type": "VEC2"
    },
    {
      "bufferView": 1,
      "byteOffset": 752,
      "componentType": 5126,
      "count": 94,
      "type": "VEC2"
    },
    {
      "bufferView": 0,
      "componentType": 5125,
      "count": 228,
      "type": "SCALAR"
    }
  ],
  "asset": {
    "generator": "fab-model-conversion",
    "version": "2.0"
  },
  "bufferViews": [
    {
      "buffer": 0,
      "byteLength": 912,
      "target": 34963
    },
    {
      "buffer": 0,
      "byteLength": 1504,
      "byteOffset": 912,
      "byteStride": 8,
      "target": 34962
    },
    {
      "buffer": 0,
      "byteLength": 2256,
      "byteOffset": 2416,
      "byteStride": 12,
      "target": 34962
    },
    {
      "buffer": 0,
      "byteLength": 1504,
      "byteOffset": 4672,
      "byteStride": 16,
      "target": 34962
    }
  ],
  "buffers": [
    {
      "byteLength": 6176,
      "uri": "Pink_Book_vdkvcaz_Low.bin"
    }
  ],
  "images": [
    {
      "uri": "textures/Pink_Book_vdkvcaz_Low_1K_albedo.jpeg"
    },
    {
      "uri": "textures/Pink_Book_vdkvcaz_Low_1K_orm.png"
    },
    {
      "uri": "textures/Pink_Book_vdkvcaz_Low_1K_normal.jpeg"
    }
  ],
  "materials": [
    {
      "doubleSided": true,
      "name": "Pink_Book_vdkvcaz_Low",
      "normalTexture": {
        "index": 2
      },
      "occlusionTexture": {
        "index": 1
      },
      "pbrMetallicRoughness": {
        "baseColorTexture": {
          "index": 0
        },
        "metallicFactor": 0.0,
        "metallicRoughnessTexture": {
          "index": 1
        }
      }
    }
  ],
  "meshes": [
    {
      "name": "vdkvcaz_LOD0_TIER3_000_MatID_1_0",
      "primitives": [
        {
          "attributes": {
            "NORMAL": 1,
            "POSITION": 0,
            "TANGENT": 2,
            "TEXCOORD_0": 3,
            "TEXCOORD_1": 4
          },
          "indices": 5,
          "material": 0,
          "mode": 4
        }
      ]
    }
  ],
  "nodes": [
    {
      "children": [
        1
      ],
      "matrix": [
        1.0,
        0.0,
        0.0,
        0.0,
        0.0,
        2.220446049250313e-16,
        -1.0,
        0.0,
        0.0,
        1.0,
        2.220446049250313e-16,
        0.0,
        0.0,
        0.0,
        0.0,
        1.0
      ],
      "name": "Sketchfab_model"
    },
    {
      "children": [
        2
      ],
      "matrix": [
        0.009999999776482582,
        0.0,
        0.0,
        0.0,
        0.0,
        0.0,
        0.009999999776482582,
        0.0,
        0.0,
        -0.009999999776482582,
        0.0,
        0.0,
        0.0,
        0.0,
        0.0,
        1.0
      ],
      "name": "Pink_Book_vdkvcaz_Low.fbx"
    },
    {
      "children": [
        3
      ],
      "name": "RootNode"
    },
    {
      "children": [
        4
      ],
      "name": "vdkvcaz_LOD0_TIER3_000"
    },
    {
      "mesh": 0,
      "name": "vdkvcaz_LOD0_TIER3_000_MatID_1_0"
    }
  ],
  "samplers": [
    {
      "magFilter": 9729,
      "minFilter": 9987,
      "wrapS": 10497,
      "wrapT": 10497
    }
  ],
  "scene": 0,
  "scenes": [
    {
      "name": "Sketchfab_Scene",
      "nodes": [
        0
      ]
    }
  ],
  "textures": [
    {
      "sampler": 0,
      "source": 0
    },
    {
      "sampler": 0,
      "source": 1
    },
    {
      "sampler": 0,
      "source": 2
    }
  ]
}
