{
  "accessors": [
    {
      "bufferView": 2,
      "componentType": 5126,
      "count": 14061,
      "max": [
        272.4466857910156,
        298.856201171875,
        270.81439208984375
      ],
      "min": [
        -302.17181396484375,
        -50.251407623291016,
        -315.6351623535156
      ],
      "type": "VEC3"
    },
    {
      "bufferView": 2,
      "byteOffset": 168732,
      "componentType": 5126,
      "count": 14061,
      "max": [
        0.9999582767486572,
        0.9999498128890991,
        0.999889075756073
      ],
      "min": [
        -0.9999682903289795,
        -0.9999938011169434,
        -0.999951183795929
      ],
      "type": "VEC3"
    },
    {
      "bufferView": 1,
      "componentType": 5126,
      "count": 14061,
      "max": [
        2.052926540374756,
        2.075610399246216
      ],
      "min": [
        -1.0709396600723267,
        -1.0202279090881348
      ],
      "type": "VEC2"
    },
    {
      "bufferView": 0,
      "componentType": 5125,
      "count": 58104,
      "type": "SCALAR"
    },
    {
      "bufferView": 2,
      "byteOffset": 337464,
      "componentType": 5126,
      "count": 9742,
      "max": [
        40.76697540283203,
        38.89247131347656,
        37.32588577270508
      ],
      "min": [
        -40.76697540283203,
        -6.051494121551514,
        -192.2200469970703
      ],
      "type": "VEC3"
    },
    {
      "bufferView": 2,
      "byteOffset": 454368,
      "componentType": 5126,
      "count": 9742,
      "max": [
        0.999975860118866,
        1.0,
        0.9978362321853638
      ],
      "min": [
        -0.9999807476997375,
        -1.0,
        -0.9996764063835144
      ],
      "type": "VEC3"
    },
    {
      "bufferView": 1,
      "byteOffset": 112488,
      "componentType": 5126,
      "count": 9742,
      "max": [
        0.9879096150398254,
        1.2017970085144043
      ],
      "min": [
        -0.10753191262483597,
        -1.9122467041015625
      ],
      "type": "VEC2"
    },
    {
      "bufferView": 0,
      "byteOffset": 232416,
      "componentType": 5125,
      "count": 58452,
      "type": "SCALAR"
    },
    {
      "bufferView": 2,
      "byteOffset": 571272,
      "componentType": 5126,
      "count": 563,
      "max": [
        -13.31810474395752,
        80.2846908569336,
        47.79668045043945
      ],
      "min": [
        -66.29401397705078,
        41.47238540649414,
        -49.85013198852539
      ],
      "type": "VEC3"
    },
    {
      "bufferView": 2,
      "byteOffset": 578028,
      "componentType": 5126,
      "count": 563,
      "max": [
        0.8965967297554016,
        0.5870565176010132,
        0.40001755952835083
      ],
      "min": [
        0.27395474910736084,
        0.3402184844017029,
        -0.8525243401527405
      ],
      "type": "VEC3"
    },
    {
      "bufferView": 1,
      "byteOffset": 190424,
      "componentType": 5126,
      "count": 563,
      "max": [
        1.0,
        1.0
      ],
      "min": [
        0.0,
        0.0
      ],
      "type": "VEC2"
    },
    {
      "bufferView": 0,
      "byteOffset": 466224,
      "componentType": 5125,
      "count": 3072,
      "type": "SCALAR"
    },
    {
      "bufferView": 2,
      "byteOffset": 584784,
      "componentType": 5126,
      "count": 442,
      "max": [
        66.29401397705078,
        82.5497055053711,
        49.85013198852539
      ],
      "min": [
        -38.3212890625,
        -82.5497055053711,
        -5.112992763519287
      ],
      "type": "VEC3"
    },
    {
      "bufferView": 2,
      "byteOffset": 590088,
      "componentType": 5126,
      "count": 442,
      "max": [
        0.9953886270523071,
        0.9997839331626892,
        0.9974040985107422
      ],
      "min": [
        -0.9953887462615967,
        -0.9997838735580444,
        -0.9974040985107422
      ],
      "type": "VEC3"
    },
    {
      "bufferView": 1,
      "byteOffset": 194928,
      "componentType": 5126,
      "count": 442,
      "max": [
        1.0,
        1.0
      ],
      "min": [
        0.0,
        0.0
      ],
      "type": "VEC2"
    },
    {
      "bufferView": 0,
      "byteOffset": 478512,
      "componentType": 5125,
      "count": 2160,
      "type": "SCALAR"
    }
  ],
  "asset": {
    "extras": {
      "author": "Leo Isidro (https://sketchfab.com/leo.isidro3)",
      "license": "CC-BY-4.0 (http://creativecommons.org/licenses/by/4.0/)",
      "source": "https://sketchfab.com/3d-models/sandcastle-cbd7cce9d39b42d68c9711e974dec368",
      "title": "SANDCASTLE"
    },
    "generator": "Sketchfab-12.66.0",
    "version": "2.0"
  },
  "bufferViews": [
    {
      "buffer": 0,
      "byteLength": 487152,
      "name": "floatBufferViews",
      "target": 34963
    },
    {
      "buffer": 0,
      "byteLength": 198464,
      "byteOffset": 487152,
      "byteStride": 8,
      "name": "floatBufferViews",
      "target": 34962
    },
    {
      "buffer": 0,
      "byteLength": 595392,
      "byteOffset": 685616,
      "byteStride": 12,
      "name": "floatBufferViews",
      "target": 34962
    }
  ],
  "buffers": [
    {
      "byteLength": 1281008,
      "uri": "scene.bin"
    }
  ],
  "extensionsRequired": [
    "KHR_materials_pbrSpecularGlossiness"
  ],
  "extensionsUsed": [
    "KHR_materials_pbrSpecularGlossiness"
  ],
  "materials": [
    {
      "doubleSided": true,
      "emissiveFactor": [
        0.31969706217447913,
        0.19825101852659918,
        0.02799415220265895
      ],
      "extensions": {
        "KHR_materials_pbrSpecularGlossiness": {
          "diffuseFactor": [
            0.6767416288542151,
            0.36988121620693265,
            0.02896476189827703,
            1.0
          ],
          "glossinessFactor": 0.3074242331764915,
          "specularFactor": [
            0.7358952609058721,
            0.1353259830109101,
            0.0
          ]
        }
      },
      "name": "Mat.2"
    },
    {
      "doubleSided": true,
      "emissiveFactor": [
        0.0,
        0.1411860768580164,
        0.28243206933667653
      ],
      "extensions": {
        "KHR_materials_pbrSpecularGlossiness": {
          "diffuseFactor": [
            0.0,
            0.07604061989395232,
            0.5287467492747401,
            1.0
          ],
          "glossinessFactor": 0.46227273652047823,
          "specularFactor": [
            0.01547870210679447,
            0.5691417454400416,
            0.6440909183386601
          ]
        }
      },
      "name": "Mat.2_0"
    },
    {
      "doubleSided": true,
      "emissiveFactor": [
        0.19848494096235794,
        0.0657149374109978,
        0.0657149374109978
      ],
      "extensions": {
        "KHR_materials_pbrSpecularGlossiness": {
          "diffuseFactor": [
            0.6143804485085214,
            0.0,
            0.0,
            1.0
          ],
          "glossinessFactor": 0.741060615308357,
          "specularFactor": [
            0.025909100156841856,
            0.025909100156841856,
            0.025909100156841856
          ]
        }
      },
      "name": "Mat.4"
    },
    {
      "doubleSided": true,
      "extensions": {
        "KHR_materials_pbrSpecularGlossiness": {
          "diffuseFactor": [
            0.7999999999999999,
            0.7136,
            0.5120000000000001,
            1.0
          ],
          "glossinessFactor": 0.04756828460010884,
          "specularFactor": [
            0.0,
            0.0,
            0.0
          ]
        }
      },
      "name": "Mat.3"
    }
  ],
  "meshes": [
    {
      "name": "SANDCASTLE_Mat.2_0",
      "primitives": [
        {
          "attributes": {
            "NORMAL": 1,
            "POSITION": 0,
            "TEXCOORD_0": 2
          },
          "indices": 3,
          "material": 0,
          "mode": 4
        }
      ]
    },
    {
      "name": "SHOVEL_Mat.2_0",
      "primitives": [
        {
          "attributes": {
            "NORMAL": 5,
            "POSITION": 4,
            "TEXCOORD_0": 6
          },
          "indices": 7,
          "material": 1,
          "mode": 4
        }
      ]
    },
    {
      "name": "FLAG_Mat.4_0",
      "primitives": [
        {
          "attributes": {
            "NORMAL": 9,
            "POSITION": 8,
            "TEXCOORD_0": 10
          },
          "indices": 11,
          "material": 2,
          "mode": 4
        }
      ]
    },
    {
      "name": "FLAG_Mat.3_0",
      "primitives": [
        {
          "attributes": {
            "NORMAL": 13,
            "POSITION": 12,
            "TEXCOORD_0": 14
          },
          "indices": 15,
          "material": 3,
          "mode": 4
        }
      ]
    }
  ],
  "nodes": [
    {
      "children": [
        1
      ],
      "matrix": [
        1.0,
        0.0,
        0.0,
        0.0,
        0.0,
        2.220446049250313e-16,
        -1.0,
        0.0,
        0.0,
        1.0,
        2.220446049250313e-16,
        0.0,
        0.0,
        0.0,
        0.0,
        1.0
      ],
      "name": "Sketchfab_model"
    },
    {
      "children": [
        2
      ],
      "matrix": [
        1.0,
        0.0,
        0.0,
        0.0,
        0.0,
        0.0,
        1.0,
        0.0,
        0.0,
        -1.0,
        0.0,
        0.0,
        0.0,
        0.0,
        0.0,
        1.0
      ],
      "name": "ab0442d5fc6347669593a72edcc41287.fbx"
    },
    {
      "children": [
        3,
        5,
        7
      ],
      "name": "RootNode"
    },
    {
      "children": [
        4
      ],
      "matrix": [
        1.0,
        0.0,
        0.0,
        0.0,
        0.0,
        1.0,
        0.0,
        0.0,
        0.0,
        0.0,
        1.0,
        0.0,
        -12.325292587280273,
        0.0,
        0.0,
        1.0
      ],
      "name": "SANDCASTLE"
    },
    {
      "mesh": 0,
      "name": "SANDCASTLE_Mat.2_0"
    },
    {
      "children": [
        6
      ],
      "matrix": [
        0.48008407837680367,
        0.004166621703262152,
        -0.8772125836720976,
        0.0,
        0.5158064909925733,
        0.8075112595531941,
        0.2861279950384838,
        0.0,
        0.7095512254510055,
        -0.5898374394342869,
        0.3855241283014339,
        0.0,
        -73.69042205810547,
        54.513648986816406,
        -95.90805053710938,
        1.0
      ],
      "name": "SHOVEL"
    },
    {
      "mesh": 1,
      "name": "SHOVEL_Mat.2_0"
    },
    {
      "children": [
        8,
        9
      ],
      "matrix": [
        1.0,
        0.0,
        -8.881784197001252e-16,
        0.0,
        -2.4651903288156615e-31,
        1.0,
        -2.775557561562891e-16,
        0.0,
        8.881784197001252e-16,
        2.775557561562891e-16,
        1.0,
        0.0,
        -45.931358337402344,
        254.82022094726563,
        -12.32890510559082,
        1.0
      ],
      "name": "FLAG"
    },
    {
      "mesh": 2,
      "name": "FLAG_Mat.4_0"
    },
    {
      "mesh": 3,
      "name": "FLAG_Mat.3_0"
    }
  ],
  "scene": 0,
  "scenes": [
    {
      "name": "Sketchfab_Scene",
      "nodes": [
        0
      ]
    }
  ]
}
